<?xml version="1.0" encoding="UTF-8" standalone="no"?>
<!DOCTYPE svg PUBLIC "-//W3C//DTD SVG 1.0//EN" "http://www.w3.org/TR/2001/PR-SVG-20010719/DTD/svg10.dtd">
<svg width="51cm" height="30cm" viewBox="73 1 1011 596" xmlns="http://www.w3.org/2000/svg" xmlns:xlink="http://www.w3.org/1999/xlink">
  <g>
    <rect style="fill: #ffffff" x="319.88" y="159.213" width="210.8" height="18"/>
    <rect style="fill: none; fill-opacity:0; stroke-width: 2; stroke: #000000" x="319.88" y="159.213" width="210.8" height="18"/>
    <text font-size="11.2" style="fill: #000000;text-anchor:middle;font-family:sans-serif;font-style:normal;font-weight:700" x="425.28" y="173.213">user</text>
    <rect style="fill: #ffffff" x="319.88" y="177.213" width="210.8" height="196"/>
    <rect style="fill: none; fill-opacity:0; stroke-width: 2; stroke: #000000" x="319.88" y="177.213" width="210.8" height="196"/>
    <polygon style="fill: #000000" points="322.88,187.213 324.88,190.213 326.88,187.213 324.88,184.213 "/>
    <text font-size="12.8" style="fill: #000000;text-anchor:start;font-family:monospace;font-style:normal;font-weight:normal" x="328.88" y="193.213">username</text>
    <text font-size="12.8" style="fill: #000000;text-anchor:start;font-family:monospace;font-style:normal;font-weight:normal" x="431.28" y="193.213">varchar</text>
    <line style="fill: none; fill-opacity:0; stroke-width: 1; stroke: #000000" x1="328.88" y1="194.813" x2="485.18" y2="194.813"/>
    <ellipse style="fill: #000000" cx="324.88" cy="203.213" rx="2" ry="2"/>
    <text font-size="12.8" style="fill: #000000;text-anchor:start;font-family:monospace;font-style:normal;font-weight:normal" x="328.88" y="209.213">password</text>
    <text font-size="12.8" style="fill: #000000;text-anchor:start;font-family:monospace;font-style:normal;font-weight:normal" x="431.28" y="209.213">varchar</text>
    <ellipse style="fill: #000000" cx="324.88" cy="219.213" rx="2" ry="2"/>
    <text font-size="12.8" style="fill: #000000;text-anchor:start;font-family:monospace;font-style:normal;font-weight:normal" x="328.88" y="225.213">firstName</text>
    <text font-size="12.8" style="fill: #000000;text-anchor:start;font-family:monospace;font-style:normal;font-weight:normal" x="431.28" y="225.213">varchar</text>
    <ellipse style="fill: #000000" cx="324.88" cy="235.213" rx="2" ry="2"/>
    <text font-size="12.8" style="fill: #000000;text-anchor:start;font-family:monospace;font-style:normal;font-weight:normal" x="328.88" y="241.213">lastName</text>
    <text font-size="12.8" style="fill: #000000;text-anchor:start;font-family:monospace;font-style:normal;font-weight:normal" x="431.28" y="241.213">varchar</text>
    <ellipse style="fill: none; fill-opacity:0; stroke-width: 0.2; stroke: #000000" cx="324.88" cy="251.213" rx="2" ry="2"/>
    <text font-size="12.8" style="fill: #000000;text-anchor:start;font-family:monospace;font-style:normal;font-weight:normal" x="328.88" y="257.213">feedUrl</text>
    <text font-size="12.8" style="fill: #000000;text-anchor:start;font-family:monospace;font-style:normal;font-weight:normal" x="431.28" y="257.213">varchar</text>
    <ellipse style="fill: #000000" cx="324.88" cy="267.213" rx="2" ry="2"/>
    <text font-size="12.8" style="fill: #000000;text-anchor:start;font-family:monospace;font-style:normal;font-weight:normal" x="328.88" y="273.213">email</text>
    <text font-size="12.8" style="fill: #000000;text-anchor:start;font-family:monospace;font-style:normal;font-weight:normal" x="431.28" y="273.213">varchar</text>
    <ellipse style="fill: none; fill-opacity:0; stroke-width: 0.2; stroke: #000000" cx="324.88" cy="283.213" rx="2" ry="2"/>
    <text font-size="12.8" style="fill: #000000;text-anchor:start;font-family:monospace;font-style:normal;font-weight:normal" x="328.88" y="289.213">picture</text>
    <text font-size="12.8" style="fill: #000000;text-anchor:start;font-family:monospace;font-style:normal;font-weight:normal" x="431.28" y="289.213">link/varchar</text>
    <ellipse style="fill: #000000" cx="324.88" cy="299.213" rx="2" ry="2"/>
    <text font-size="12.8" style="fill: #000000;text-anchor:start;font-family:monospace;font-style:normal;font-weight:normal" x="328.88" y="305.213">birthday</text>
    <text font-size="12.8" style="fill: #000000;text-anchor:start;font-family:monospace;font-style:normal;font-weight:normal" x="431.28" y="305.213">date</text>
    <ellipse style="fill: #000000" cx="324.88" cy="315.213" rx="2" ry="2"/>
    <text font-size="12.8" style="fill: #000000;text-anchor:start;font-family:monospace;font-style:normal;font-weight:normal" x="328.88" y="321.213">street</text>
    <text font-size="12.8" style="fill: #000000;text-anchor:start;font-family:monospace;font-style:normal;font-weight:normal" x="431.28" y="321.213">varchar</text>
    <ellipse style="fill: #000000" cx="324.88" cy="331.213" rx="2" ry="2"/>
    <text font-size="12.8" style="fill: #000000;text-anchor:start;font-family:monospace;font-style:normal;font-weight:normal" x="328.88" y="337.213">housenumber</text>
    <text font-size="12.8" style="fill: #000000;text-anchor:start;font-family:monospace;font-style:normal;font-weight:normal" x="431.28" y="337.213">varchar</text>
    <ellipse style="fill: #000000" cx="324.88" cy="347.213" rx="2" ry="2"/>
    <text font-size="12.8" style="fill: #000000;text-anchor:start;font-family:monospace;font-style:normal;font-weight:normal" x="328.88" y="353.213">zip</text>
    <text font-size="12.8" style="fill: #000000;text-anchor:start;font-family:monospace;font-style:normal;font-weight:normal" x="431.28" y="353.213">Ort/plz</text>
    <ellipse style="fill: none; fill-opacity:0; stroke-width: 0.2; stroke: #000000" cx="324.88" cy="363.213" rx="2" ry="2"/>
    <text font-size="12.8" style="fill: #000000;text-anchor:start;font-family:monospace;font-style:normal;font-weight:normal" x="328.88" y="369.213">feedPassword</text>
    <text font-size="12.8" style="fill: #000000;text-anchor:start;font-family:monospace;font-style:normal;font-weight:normal" x="431.28" y="369.213">varchar</text>
  </g>
  <g>
    <rect style="fill: #ffffff" x="854" y="239" width="164.6" height="18"/>
    <rect style="fill: none; fill-opacity:0; stroke-width: 2; stroke: #000000" x="854" y="239" width="164.6" height="18"/>
    <text font-size="11.2" style="fill: #000000;text-anchor:middle;font-family:sans-serif;font-style:normal;font-weight:700" x="936.3" y="253">posts</text>
    <rect style="fill: #ffffff" x="854" y="257" width="164.6" height="84"/>
    <rect style="fill: none; fill-opacity:0; stroke-width: 2; stroke: #000000" x="854" y="257" width="164.6" height="84"/>
    <polygon style="fill: #000000" points="857,267 859,270 861,267 859,264 "/>
    <text font-size="12.8" style="fill: #000000;text-anchor:start;font-family:monospace;font-style:normal;font-weight:normal" x="863" y="273">id</text>
    <text font-size="12.8" style="fill: #000000;text-anchor:start;font-family:monospace;font-style:normal;font-weight:normal" x="950" y="273">int</text>
    <line style="fill: none; fill-opacity:0; stroke-width: 1; stroke: #000000" x1="863" y1="274.6" x2="973.1" y2="274.6"/>
    <ellipse style="fill: #000000" cx="859" cy="283" rx="2" ry="2"/>
    <text font-size="12.8" style="fill: #000000;text-anchor:start;font-family:monospace;font-style:normal;font-weight:normal" x="863" y="289">content</text>
    <text font-size="12.8" style="fill: #000000;text-anchor:start;font-family:monospace;font-style:normal;font-weight:normal" x="950" y="289">varchar</text>
    <ellipse style="fill: #000000" cx="859" cy="299" rx="2" ry="2"/>
    <text font-size="12.8" style="fill: #000000;text-anchor:start;font-family:monospace;font-style:normal;font-weight:normal" x="863" y="305">user</text>
    <text font-size="12.8" style="fill: #000000;text-anchor:start;font-family:monospace;font-style:normal;font-weight:normal" x="950" y="305">User</text>
    <ellipse style="fill: none; fill-opacity:0; stroke-width: 0.2; stroke: #000000" cx="859" cy="315" rx="2" ry="2"/>
    <text font-size="12.8" style="fill: #000000;text-anchor:start;font-family:monospace;font-style:normal;font-weight:normal" x="863" y="321">parentPost</text>
    <text font-size="12.8" style="fill: #000000;text-anchor:start;font-family:monospace;font-style:normal;font-weight:normal" x="950" y="321">Post</text>
    <ellipse style="fill: none; fill-opacity:0; stroke-width: 0.2; stroke: #000000" cx="859" cy="331" rx="2" ry="2"/>
    <text font-size="12.8" style="fill: #000000;text-anchor:start;font-family:monospace;font-style:normal;font-weight:normal" x="863" y="337">datePosted</text>
    <text font-size="12.8" style="fill: #000000;text-anchor:start;font-family:monospace;font-style:normal;font-weight:normal" x="950" y="337">datetime</text>
  </g>
  <g>
    <polyline style="fill: none; fill-opacity:0; stroke-width: 2; stroke: #000000" points="530.68,168.213 804.79,168.213 804.79,248 844.264,248 "/>
    <polygon style="fill: #000000" points="851.764,248 841.764,253 844.264,248 841.764,243 "/>
    <polygon style="fill: none; fill-opacity:0; stroke-width: 2; stroke: #000000" points="851.764,248 841.764,253 844.264,248 841.764,243 "/>
    <text font-size="9.6" style="fill: #000000;text-anchor:start;font-family:monospace;font-style:normal;font-weight:normal" x="534.68" y="164.213">1</text>
    <text font-size="9.6" style="fill: #000000;text-anchor:end;font-family:monospace;font-style:normal;font-weight:normal" x="850" y="244">n</text>
  </g>
  <g>
    <rect style="fill: #ffffff" x="187.438" y="424.514" width="118.4" height="18"/>
    <rect style="fill: none; fill-opacity:0; stroke-width: 2; stroke: #000000" x="187.438" y="424.514" width="118.4" height="18"/>
    <text font-size="11.2" style="fill: #000000;text-anchor:middle;font-family:sans-serif;font-style:normal;font-weight:700" x="246.638" y="438.514">follower</text>
    <rect style="fill: #ffffff" x="187.438" y="442.514" width="118.4" height="36"/>
    <rect style="fill: none; fill-opacity:0; stroke-width: 2; stroke: #000000" x="187.438" y="442.514" width="118.4" height="36"/>
    <polygon style="fill: #000000" points="190.438,452.514 192.438,455.514 194.438,452.514 192.438,449.514 "/>
    <text font-size="12.8" style="fill: #000000;text-anchor:start;font-family:monospace;font-style:normal;font-weight:normal" x="196.438" y="458.514">followed</text>
    <text font-size="12.8" style="fill: #000000;text-anchor:start;font-family:monospace;font-style:normal;font-weight:normal" x="268.038" y="458.514">user</text>
    <line style="fill: none; fill-opacity:0; stroke-width: 1; stroke: #000000" x1="196.438" y1="460.114" x2="298.838" y2="460.114"/>
    <polygon style="fill: #000000" points="190.438,468.514 192.438,471.514 194.438,468.514 192.438,465.514 "/>
    <text font-size="12.8" style="fill: #000000;text-anchor:start;font-family:monospace;font-style:normal;font-weight:normal" x="196.438" y="474.514">follower</text>
    <text font-size="12.8" style="fill: #000000;text-anchor:start;font-family:monospace;font-style:normal;font-weight:normal" x="268.038" y="474.514">user</text>
    <line style="fill: none; fill-opacity:0; stroke-width: 1; stroke: #000000" x1="196.438" y1="476.114" x2="298.838" y2="476.114"/>
  </g>
  <g>
    <rect style="fill: #ffffff" x="547" y="48" width="118.4" height="18"/>
    <rect style="fill: none; fill-opacity:0; stroke-width: 2; stroke: #000000" x="547" y="48" width="118.4" height="18"/>
    <text font-size="11.2" style="fill: #000000;text-anchor:middle;font-family:sans-serif;font-style:normal;font-weight:700" x="606.2" y="62">votes</text>
    <rect style="fill: #ffffff" x="547" y="66" width="118.4" height="52"/>
    <rect style="fill: none; fill-opacity:0; stroke-width: 2; stroke: #000000" x="547" y="66" width="118.4" height="52"/>
    <polygon style="fill: #000000" points="550,76 552,79 554,76 552,73 "/>
    <text font-size="12.8" style="fill: #000000;text-anchor:start;font-family:monospace;font-style:normal;font-weight:normal" x="556" y="82">voter</text>
    <text font-size="12.8" style="fill: #000000;text-anchor:start;font-family:monospace;font-style:normal;font-weight:normal" x="604.5" y="82">user</text>
    <line style="fill: none; fill-opacity:0; stroke-width: 1; stroke: #000000" x1="556" y1="83.6" x2="635.3" y2="83.6"/>
    <polygon style="fill: #000000" points="550,92 552,95 554,92 552,89 "/>
    <text font-size="12.8" style="fill: #000000;text-anchor:start;font-family:monospace;font-style:normal;font-weight:normal" x="556" y="98">post</text>
    <text font-size="12.8" style="fill: #000000;text-anchor:start;font-family:monospace;font-style:normal;font-weight:normal" x="604.5" y="98">Posts</text>
    <line style="fill: none; fill-opacity:0; stroke-width: 1; stroke: #000000" x1="556" y1="99.6" x2="643" y2="99.6"/>
    <ellipse style="fill: #000000" cx="552" cy="108" rx="2" ry="2"/>
    <text font-size="12.8" style="fill: #000000;text-anchor:start;font-family:monospace;font-style:normal;font-weight:normal" x="556" y="114">vote</text>
    <text font-size="12.8" style="fill: #000000;text-anchor:start;font-family:monospace;font-style:normal;font-weight:normal" x="604.5" y="114">tinyint</text>
  </g>
  <g>
    <polyline style="fill: none; fill-opacity:0; stroke-width: 2; stroke: #000000" points="319.88,267.212 319.88,345.863 246.638,345.863 246.638,414.778 "/>
    <polygon style="fill: #000000" points="246.638,422.278 241.638,412.278 246.638,414.778 251.638,412.278 "/>
    <polygon style="fill: none; fill-opacity:0; stroke-width: 2; stroke: #000000" points="246.638,422.278 241.638,412.278 246.638,414.778 251.638,412.278 "/>
    <text font-size="9.6" style="fill: #000000;text-anchor:start;font-family:monospace;font-style:normal;font-weight:normal" x="323.88" y="279.212">1</text>
    <text font-size="9.6" style="fill: #000000;text-anchor:start;font-family:monospace;font-style:normal;font-weight:normal" x="250.638" y="420.514">c/n</text>
  </g>
  <g>
    <polyline style="fill: none; fill-opacity:0; stroke-width: 2; stroke: #000000" points="477.98,159.213 477.98,57 537.264,57 "/>
    <polygon style="fill: #000000" points="544.764,57 534.764,62 537.264,57 534.764,52 "/>
    <polygon style="fill: none; fill-opacity:0; stroke-width: 2; stroke: #000000" points="544.764,57 534.764,62 537.264,57 534.764,52 "/>
    <text font-size="9.6" style="fill: #000000;text-anchor:start;font-family:monospace;font-style:normal;font-weight:normal" x="481.98" y="155.213">1</text>
    <text font-size="9.6" style="fill: #000000;text-anchor:end;font-family:monospace;font-style:normal;font-weight:normal" x="543" y="53">n</text>
  </g>
  <g>
    <polyline style="fill: none; fill-opacity:0; stroke-width: 2; stroke: #000000" points="895.15,239 895.15,76 675.136,76 "/>
    <polygon style="fill: #000000" points="667.636,76 677.636,71 675.136,76 677.636,81 "/>
    <polygon style="fill: none; fill-opacity:0; stroke-width: 2; stroke: #000000" points="667.636,76 677.636,71 675.136,76 677.636,81 "/>
    <text font-size="9.6" style="fill: #000000;text-anchor:start;font-family:monospace;font-style:normal;font-weight:normal" x="899.15" y="235">1</text>
    <text font-size="9.6" style="fill: #000000;text-anchor:start;font-family:monospace;font-style:normal;font-weight:normal" x="669.4" y="72">n</text>
  </g>
  <g>
    <polyline style="fill: none; fill-opacity:0; stroke-width: 2; stroke: #000000" points="319.88,373.213 319.88,393.213 339.88,393.213 339.88,433.514 315.574,433.514 "/>
    <polygon style="fill: #000000" points="308.074,433.514 318.074,428.514 315.574,433.514 318.074,438.514 "/>
    <polygon style="fill: none; fill-opacity:0; stroke-width: 2; stroke: #000000" points="308.074,433.514 318.074,428.514 315.574,433.514 318.074,438.514 "/>
    <text font-size="9.6" style="fill: #000000;text-anchor:start;font-family:monospace;font-style:normal;font-weight:normal" x="323.88" y="385.213">1</text>
    <text font-size="9.6" style="fill: #000000;text-anchor:start;font-family:monospace;font-style:normal;font-weight:normal" x="309.838" y="429.514">c/n</text>
  </g>
  <g>
    <polygon style="fill: #ffffff" points="687.686,167.736 730.786,141.876 773.886,167.736 730.786,193.596 "/>
    <polygon style="fill: none; fill-opacity:0; stroke-width: 2; stroke: #000000" points="687.686,167.736 730.786,141.876 773.886,167.736 730.786,193.596 "/>
    <text font-size="12.8" style="fill: #000000;text-anchor:end;font-family:monospace;font-style:normal;font-weight:normal" x="681.686" y="161.736"/>
    <text font-size="12.8" style="fill: #000000;text-anchor:start;font-family:monospace;font-style:normal;font-weight:normal" x="779.886" y="161.736"/>
    <text font-size="12.8" style="fill: #000000;text-anchor:middle;font-family:monospace;font-style:normal;font-weight:normal" x="730.786" y="171.736">posted</text>
  </g>
  <g>
    <rect style="fill: #ffffff" x="341.672" y="452.22" width="156.9" height="18"/>
    <rect style="fill: none; fill-opacity:0; stroke-width: 2; stroke: #000000" x="341.672" y="452.22" width="156.9" height="18"/>
    <text font-size="11.2" style="fill: #000000;text-anchor:middle;font-family:sans-serif;font-style:normal;font-weight:700" x="420.122" y="466.22">duell</text>
    <rect style="fill: #ffffff" x="341.672" y="470.22" width="156.9" height="84"/>
    <rect style="fill: none; fill-opacity:0; stroke-width: 2; stroke: #000000" x="341.672" y="470.22" width="156.9" height="84"/>
    <polygon style="fill: #000000" points="344.672,480.22 346.672,483.22 348.672,480.22 346.672,477.22 "/>
    <text font-size="12.8" style="fill: #000000;text-anchor:start;font-family:monospace;font-style:normal;font-weight:normal" x="350.672" y="486.22">id</text>
    <text font-size="12.8" style="fill: #000000;text-anchor:start;font-family:monospace;font-style:normal;font-weight:normal" x="460.772" y="486.22">int</text>
    <line style="fill: none; fill-opacity:0; stroke-width: 1; stroke: #000000" x1="350.672" y1="487.82" x2="483.872" y2="487.82"/>
    <ellipse style="fill: #000000" cx="346.672" cy="496.22" rx="2" ry="2"/>
    <text font-size="12.8" style="fill: #000000;text-anchor:start;font-family:monospace;font-style:normal;font-weight:normal" x="350.672" y="502.22">fighterPost</text>
    <text font-size="12.8" style="fill: #000000;text-anchor:start;font-family:monospace;font-style:normal;font-weight:normal" x="460.772" y="502.22">User</text>
    <ellipse style="fill: #000000" cx="346.672" cy="512.22" rx="2" ry="2"/>
    <text font-size="12.8" style="fill: #000000;text-anchor:start;font-family:monospace;font-style:normal;font-weight:normal" x="350.672" y="518.22">fighterRepost</text>
    <text font-size="12.8" style="fill: #000000;text-anchor:start;font-family:monospace;font-style:normal;font-weight:normal" x="460.772" y="518.22">User</text>
    <ellipse style="fill: #000000" cx="346.672" cy="528.22" rx="2" ry="2"/>
    <text font-size="12.8" style="fill: #000000;text-anchor:start;font-family:monospace;font-style:normal;font-weight:normal" x="350.672" y="534.22">post</text>
    <text font-size="12.8" style="fill: #000000;text-anchor:start;font-family:monospace;font-style:normal;font-weight:normal" x="460.772" y="534.22">Post</text>
    <ellipse style="fill: none; fill-opacity:0; stroke-width: 0.2; stroke: #000000" cx="346.672" cy="544.22" rx="2" ry="2"/>
    <text font-size="12.8" style="fill: #000000;text-anchor:start;font-family:monospace;font-style:normal;font-weight:normal" x="350.672" y="550.22">winner</text>
    <text font-size="12.8" style="fill: #000000;text-anchor:start;font-family:monospace;font-style:normal;font-weight:normal" x="460.772" y="550.22">User</text>
  </g>
  <g>
    <polyline style="fill: none; fill-opacity:0; stroke-width: 2; stroke: #000000" points="372.58,373.213 372.58,412.716 380.897,412.716 380.897,442.484 "/>
    <polygon style="fill: #000000" points="380.897,449.984 375.897,439.984 380.897,442.484 385.897,439.984 "/>
    <polygon style="fill: none; fill-opacity:0; stroke-width: 2; stroke: #000000" points="380.897,449.984 375.897,439.984 380.897,442.484 385.897,439.984 "/>
    <text font-size="9.6" style="fill: #000000;text-anchor:start;font-family:monospace;font-style:normal;font-weight:normal" x="376.58" y="385.213">1</text>
    <text font-size="9.6" style="fill: #000000;text-anchor:start;font-family:monospace;font-style:normal;font-weight:normal" x="384.897" y="448.22">c/n</text>
  </g>
  <g>
    <rect style="fill: #ffffff" x="591.894" y="508.072" width="210.8" height="18"/>
    <rect style="fill: none; fill-opacity:0; stroke-width: 2; stroke: #000000" x="591.894" y="508.072" width="210.8" height="18"/>
    <text font-size="11.2" style="fill: #000000;text-anchor:middle;font-family:sans-serif;font-style:normal;font-weight:700" x="697.294" y="522.072">round</text>
    <rect style="fill: #ffffff" x="591.894" y="526.072" width="210.8" height="68"/>
    <rect style="fill: none; fill-opacity:0; stroke-width: 2; stroke: #000000" x="591.894" y="526.072" width="210.8" height="68"/>
    <polygon style="fill: #000000" points="594.894,536.072 596.894,539.072 598.894,536.072 596.894,533.072 "/>
    <text font-size="12.8" style="fill: #000000;text-anchor:start;font-family:monospace;font-style:normal;font-weight:normal" x="600.894" y="542.072">duell</text>
    <text font-size="12.8" style="fill: #000000;text-anchor:start;font-family:monospace;font-style:normal;font-weight:normal" x="757.194" y="542.072">Duell</text>
    <line style="fill: none; fill-opacity:0; stroke-width: 1; stroke: #000000" x1="600.894" y1="543.672" x2="795.694" y2="543.672"/>
    <polygon style="fill: #000000" points="594.894,552.072 596.894,555.072 598.894,552.072 596.894,549.072 "/>
    <text font-size="12.8" style="fill: #000000;text-anchor:start;font-family:monospace;font-style:normal;font-weight:normal" x="600.894" y="558.072">round</text>
    <text font-size="12.8" style="fill: #000000;text-anchor:start;font-family:monospace;font-style:normal;font-weight:normal" x="757.194" y="558.072">int</text>
    <line style="fill: none; fill-opacity:0; stroke-width: 1; stroke: #000000" x1="600.894" y1="559.672" x2="780.294" y2="559.672"/>
    <ellipse style="fill: #000000" cx="596.894" cy="568.072" rx="2" ry="2"/>
    <text font-size="12.8" style="fill: #000000;text-anchor:start;font-family:monospace;font-style:normal;font-weight:normal" x="600.894" y="574.072">fighterPostAction</text>
    <text font-size="12.8" style="fill: #000000;text-anchor:start;font-family:monospace;font-style:normal;font-weight:normal" x="757.194" y="574.072">int</text>
    <ellipse style="fill: #000000" cx="596.894" cy="584.072" rx="2" ry="2"/>
    <text font-size="12.8" style="fill: #000000;text-anchor:start;font-family:monospace;font-style:normal;font-weight:normal" x="600.894" y="590.072">fighterRepostAction</text>
    <text font-size="12.8" style="fill: #000000;text-anchor:start;font-family:monospace;font-style:normal;font-weight:normal" x="757.194" y="590.072">int</text>
  </g>
  <g>
    <polyline style="fill: none; fill-opacity:0; stroke-width: 2; stroke: #000000" points="498.572,528.22 545.233,528.22 545.233,552.072 582.158,552.072 "/>
    <polygon style="fill: #000000" points="589.658,552.072 579.658,557.072 582.158,552.072 579.658,547.072 "/>
    <polygon style="fill: none; fill-opacity:0; stroke-width: 2; stroke: #000000" points="589.658,552.072 579.658,557.072 582.158,552.072 579.658,547.072 "/>
    <text font-size="9.6" style="fill: #000000;text-anchor:start;font-family:monospace;font-style:normal;font-weight:normal" x="502.572" y="524.22">1</text>
    <text font-size="9.6" style="fill: #000000;text-anchor:end;font-family:monospace;font-style:normal;font-weight:normal" x="587.894" y="548.072">n</text>
  </g>
  <g>
    <rect style="fill: #ffffff" x="88.2976" y="175.687" width="110.7" height="18"/>
    <rect style="fill: none; fill-opacity:0; stroke-width: 2; stroke: #000000" x="88.2976" y="175.687" width="110.7" height="18"/>
    <text font-size="11.2" style="fill: #000000;text-anchor:middle;font-family:sans-serif;font-style:normal;font-weight:700" x="143.648" y="189.687">account</text>
    <rect style="fill: #ffffff" x="88.2976" y="193.687" width="110.7" height="52"/>
    <rect style="fill: none; fill-opacity:0; stroke-width: 2; stroke: #000000" x="88.2976" y="193.687" width="110.7" height="52"/>
    <polygon style="fill: #000000" points="91.2976,203.687 93.2976,206.687 95.2976,203.687 93.2976,200.687 "/>
    <text font-size="12.8" style="fill: #000000;text-anchor:start;font-family:monospace;font-style:normal;font-weight:normal" x="97.2976" y="209.687">iban</text>
    <text font-size="12.8" style="fill: #000000;text-anchor:start;font-family:monospace;font-style:normal;font-weight:normal" x="138.098" y="209.687">varchar</text>
    <line style="fill: none; fill-opacity:0; stroke-width: 1; stroke: #000000" x1="97.2976" y1="211.287" x2="191.998" y2="211.287"/>
    <ellipse style="fill: none; fill-opacity:0; stroke-width: 0.2; stroke: #000000" cx="93.2976" cy="219.687" rx="2" ry="2"/>
    <text font-size="12.8" style="fill: #000000;text-anchor:start;font-family:monospace;font-style:normal;font-weight:normal" x="97.2976" y="225.687">bic</text>
    <text font-size="12.8" style="fill: #000000;text-anchor:start;font-family:monospace;font-style:normal;font-weight:normal" x="138.098" y="225.687">varchar</text>
    <ellipse style="fill: #000000" cx="93.2976" cy="235.687" rx="2" ry="2"/>
    <text font-size="12.8" style="fill: #000000;text-anchor:start;font-family:monospace;font-style:normal;font-weight:normal" x="97.2976" y="241.687">user</text>
    <text font-size="12.8" style="fill: #000000;text-anchor:start;font-family:monospace;font-style:normal;font-weight:normal" x="138.098" y="241.687">User</text>
  </g>
  <g>
    <rect style="fill: #ffffff" x="73.79" y="333.154" width="110.7" height="18"/>
    <rect style="fill: none; fill-opacity:0; stroke-width: 2; stroke: #000000" x="73.79" y="333.154" width="110.7" height="18"/>
    <text font-size="11.2" style="fill: #000000;text-anchor:middle;font-family:sans-serif;font-style:normal;font-weight:700" x="129.14" y="347.154"> bic</text>
    <rect style="fill: #ffffff" x="73.79" y="351.154" width="110.7" height="36"/>
    <rect style="fill: none; fill-opacity:0; stroke-width: 2; stroke: #000000" x="73.79" y="351.154" width="110.7" height="36"/>
    <polygon style="fill: #000000" points="76.79,361.154 78.79,364.154 80.79,361.154 78.79,358.154 "/>
    <text font-size="12.8" style="fill: #000000;text-anchor:start;font-family:monospace;font-style:normal;font-weight:normal" x="82.79" y="367.154">bic</text>
    <text font-size="12.8" style="fill: #000000;text-anchor:start;font-family:monospace;font-style:normal;font-weight:normal" x="123.59" y="367.154">varchar</text>
    <line style="fill: none; fill-opacity:0; stroke-width: 1; stroke: #000000" x1="82.79" y1="368.754" x2="177.49" y2="368.754"/>
    <ellipse style="fill: #000000" cx="78.79" cy="377.154" rx="2" ry="2"/>
    <text font-size="12.8" style="fill: #000000;text-anchor:start;font-family:monospace;font-style:normal;font-weight:normal" x="82.79" y="383.154">bank</text>
    <text font-size="12.8" style="fill: #000000;text-anchor:start;font-family:monospace;font-style:normal;font-weight:normal" x="123.59" y="383.154">varchar</text>
  </g>
  <g>
    <polyline style="fill: none; fill-opacity:0; stroke-width: 2; stroke: #000000" points="319.88,219.213 259.439,219.213 259.439,219.687 208.734,219.687 "/>
    <polygon style="fill: #000000" points="201.234,219.687 211.234,214.687 208.734,219.687 211.234,224.687 "/>
    <polygon style="fill: none; fill-opacity:0; stroke-width: 2; stroke: #000000" points="201.234,219.687 211.234,214.687 208.734,219.687 211.234,224.687 "/>
    <text font-size="9.6" style="fill: #000000;text-anchor:end;font-family:monospace;font-style:normal;font-weight:normal" x="315.88" y="215.213">1</text>
    <text font-size="9.6" style="fill: #000000;text-anchor:start;font-family:monospace;font-style:normal;font-weight:normal" x="202.998" y="215.687">n</text>
  </g>
  <g>
    <rect style="fill: #ffffff" x="326.79" y="1" width="110.7" height="18"/>
    <rect style="fill: none; fill-opacity:0; stroke-width: 2; stroke: #000000" x="326.79" y="1" width="110.7" height="18"/>
    <text font-size="11.2" style="fill: #000000;text-anchor:middle;font-family:sans-serif;font-style:normal;font-weight:700" x="382.14" y="15">city</text>
    <rect style="fill: #ffffff" x="326.79" y="19" width="110.7" height="36"/>
    <rect style="fill: none; fill-opacity:0; stroke-width: 2; stroke: #000000" x="326.79" y="19" width="110.7" height="36"/>
    <polygon style="fill: #000000" points="329.79,29 331.79,32 333.79,29 331.79,26 "/>
    <text font-size="12.8" style="fill: #000000;text-anchor:start;font-family:monospace;font-style:normal;font-weight:normal" x="335.79" y="35">zip</text>
    <text font-size="12.8" style="fill: #000000;text-anchor:start;font-family:monospace;font-style:normal;font-weight:normal" x="376.59" y="35">varchar</text>
    <line style="fill: none; fill-opacity:0; stroke-width: 1; stroke: #000000" x1="335.79" y1="36.6" x2="430.49" y2="36.6"/>
    <ellipse style="fill: #000000" cx="331.79" cy="45" rx="2" ry="2"/>
    <text font-size="12.8" style="fill: #000000;text-anchor:start;font-family:monospace;font-style:normal;font-weight:normal" x="335.79" y="51">city</text>
    <text font-size="12.8" style="fill: #000000;text-anchor:start;font-family:monospace;font-style:normal;font-weight:normal" x="376.59" y="51">varchar</text>
  </g>
  <g>
    <polyline style="fill: none; fill-opacity:0; stroke-width: 2; stroke: #000000" points="372.58,159.213 372.58,107.106 382.14,107.106 382.14,64.7361 "/>
    <polygon style="fill: #000000" points="382.14,57.2361 387.14,67.2361 382.14,64.7361 377.14,67.2361 "/>
    <polygon style="fill: none; fill-opacity:0; stroke-width: 2; stroke: #000000" points="382.14,57.2361 387.14,67.2361 382.14,64.7361 377.14,67.2361 "/>
    <text font-size="9.6" style="fill: #000000;text-anchor:start;font-family:monospace;font-style:normal;font-weight:normal" x="376.58" y="155.213">1</text>
    <text font-size="9.6" style="fill: #000000;text-anchor:start;font-family:monospace;font-style:normal;font-weight:normal" x="386.14" y="67">n</text>
  </g>
  <g>
    <polyline style="fill: none; fill-opacity:0; stroke-width: 2; stroke: #000000" points="498.572,480.22 826.696,480.22 826.696,331 844.264,331 "/>
    <polygon style="fill: #000000" points="851.764,331 841.764,336 844.264,331 841.764,326 "/>
    <polygon style="fill: none; fill-opacity:0; stroke-width: 2; stroke: #000000" points="851.764,331 841.764,336 844.264,331 841.764,326 "/>
    <text font-size="9.6" style="fill: #000000;text-anchor:start;font-family:monospace;font-style:normal;font-weight:normal" x="502.572" y="476.22">c</text>
    <text font-size="9.6" style="fill: #000000;text-anchor:end;font-family:monospace;font-style:normal;font-weight:normal" x="850" y="327">1</text>
  </g>
  <g>
    <polyline style="fill: none; fill-opacity:0; stroke-width: 2; stroke: #000000" points="425.28,373.213 425.28,417.716 459.347,417.716 459.347,442.484 "/>
    <polygon style="fill: #000000" points="459.347,449.984 454.347,439.984 459.347,442.484 464.347,439.984 "/>
    <polygon style="fill: none; fill-opacity:0; stroke-width: 2; stroke: #000000" points="459.347,449.984 454.347,439.984 459.347,442.484 464.347,439.984 "/>
    <text font-size="9.6" style="fill: #000000;text-anchor:start;font-family:monospace;font-style:normal;font-weight:normal" x="429.28" y="385.213">1</text>
    <text font-size="9.6" style="fill: #000000;text-anchor:start;font-family:monospace;font-style:normal;font-weight:normal" x="463.347" y="448.22">c/n</text>
  </g>
  <g>
    <polyline style="fill: none; fill-opacity:0; stroke-width: 2; stroke: #000000" points="477.98,373.213 477.98,412.716 498.572,412.716 498.572,442.484 "/>
    <polygon style="fill: #000000" points="498.572,449.984 493.572,439.984 498.572,442.484 503.572,439.984 "/>
    <polygon style="fill: none; fill-opacity:0; stroke-width: 2; stroke: #000000" points="498.572,449.984 493.572,439.984 498.572,442.484 503.572,439.984 "/>
    <text font-size="9.6" style="fill: #000000;text-anchor:start;font-family:monospace;font-style:normal;font-weight:normal" x="481.98" y="385.213">1</text>
    <text font-size="9.6" style="fill: #000000;text-anchor:start;font-family:monospace;font-style:normal;font-weight:normal" x="502.572" y="448.22">c/n</text>
  </g>
  <g>
    <rect style="fill: #ffffff" x="942.696" y="66" width="141.5" height="18"/>
    <rect style="fill: none; fill-opacity:0; stroke-width: 2; stroke: #000000" x="942.696" y="66" width="141.5" height="18"/>
    <text font-size="11.2" style="fill: #000000;text-anchor:middle;font-family:sans-serif;font-style:normal;font-weight:700" x="1013.45" y="80">postsimg</text>
    <rect style="fill: #ffffff" x="942.696" y="84" width="141.5" height="36"/>
    <rect style="fill: none; fill-opacity:0; stroke-width: 2; stroke: #000000" x="942.696" y="84" width="141.5" height="36"/>
    <polygon style="fill: #000000" points="945.696,94 947.696,97 949.696,94 947.696,91 "/>
    <text font-size="12.8" style="fill: #000000;text-anchor:start;font-family:monospace;font-style:normal;font-weight:normal" x="951.696" y="100">postId</text>
    <text font-size="12.8" style="fill: #000000;text-anchor:start;font-family:monospace;font-style:normal;font-weight:normal" x="1023.3" y="100">Post</text>
    <line style="fill: none; fill-opacity:0; stroke-width: 1; stroke: #000000" x1="951.696" y1="101.6" x2="1054.1" y2="101.6"/>
    <polygon style="fill: #000000" points="945.696,110 947.696,113 949.696,110 947.696,107 "/>
    <text font-size="12.8" style="fill: #000000;text-anchor:start;font-family:monospace;font-style:normal;font-weight:normal" x="951.696" y="116">filename</text>
    <text font-size="12.8" style="fill: #000000;text-anchor:start;font-family:monospace;font-style:normal;font-weight:normal" x="1023.3" y="116">varchar</text>
    <line style="fill: none; fill-opacity:0; stroke-width: 1; stroke: #000000" x1="951.696" y1="117.6" x2="1077.2" y2="117.6"/>
  </g>
  <g>
    <polyline style="fill: none; fill-opacity:0; stroke-width: 2; stroke: #000000" points="977.45,239 977.45,179.5 978.071,179.5 978.071,129.736 "/>
    <polygon style="fill: #000000" points="978.071,122.236 983.071,132.236 978.071,129.736 973.071,132.236 "/>
    <polygon style="fill: none; fill-opacity:0; stroke-width: 2; stroke: #000000" points="978.071,122.236 983.071,132.236 978.071,129.736 973.071,132.236 "/>
    <text font-size="9.6" style="fill: #000000;text-anchor:start;font-family:monospace;font-style:normal;font-weight:normal" x="981.45" y="235">1</text>
    <text font-size="9.6" style="fill: #000000;text-anchor:start;font-family:monospace;font-style:normal;font-weight:normal" x="982.071" y="132">n</text>
  </g>
  <g>
    <rect style="fill: #ffffff" x="613.696" y="239" width="133.8" height="18"/>
    <rect style="fill: none; fill-opacity:0; stroke-width: 2; stroke: #000000" x="613.696" y="239" width="133.8" height="18"/>
    <text font-size="11.2" style="fill: #000000;text-anchor:middle;font-family:sans-serif;font-style:normal;font-weight:700" x="680.596" y="253">comment</text>
    <rect style="fill: #ffffff" x="613.696" y="257" width="133.8" height="68"/>
    <rect style="fill: none; fill-opacity:0; stroke-width: 2; stroke: #000000" x="613.696" y="257" width="133.8" height="68"/>
    <polygon style="fill: #000000" points="616.696,267 618.696,270 620.696,267 618.696,264 "/>
    <text font-size="12.8" style="fill: #000000;text-anchor:start;font-family:monospace;font-style:normal;font-weight:normal" x="622.696" y="273">id</text>
    <text font-size="12.8" style="fill: #000000;text-anchor:start;font-family:monospace;font-style:normal;font-weight:normal" x="686.596" y="273">int</text>
    <line style="fill: none; fill-opacity:0; stroke-width: 1; stroke: #000000" x1="622.696" y1="274.6" x2="709.696" y2="274.6"/>
    <ellipse style="fill: #000000" cx="618.696" cy="283" rx="2" ry="2"/>
    <text font-size="12.8" style="fill: #000000;text-anchor:start;font-family:monospace;font-style:normal;font-weight:normal" x="622.696" y="289">userId</text>
    <text font-size="12.8" style="fill: #000000;text-anchor:start;font-family:monospace;font-style:normal;font-weight:normal" x="686.596" y="289">User</text>
    <ellipse style="fill: #000000" cx="618.696" cy="299" rx="2" ry="2"/>
    <text font-size="12.8" style="fill: #000000;text-anchor:start;font-family:monospace;font-style:normal;font-weight:normal" x="622.696" y="305">postId</text>
    <text font-size="12.8" style="fill: #000000;text-anchor:start;font-family:monospace;font-style:normal;font-weight:normal" x="686.596" y="305">Post</text>
    <ellipse style="fill: #000000" cx="618.696" cy="315" rx="2" ry="2"/>
    <text font-size="12.8" style="fill: #000000;text-anchor:start;font-family:monospace;font-style:normal;font-weight:normal" x="622.696" y="321">comment</text>
    <text font-size="12.8" style="fill: #000000;text-anchor:start;font-family:monospace;font-style:normal;font-weight:normal" x="686.596" y="321">varchar</text>
  </g>
  <g>
    <polyline style="fill: none; fill-opacity:0; stroke-width: 2; stroke: #000000" points="530.68,283.213 572.188,283.213 572.188,283 603.96,283 "/>
    <polygon style="fill: #000000" points="611.46,283 601.46,288 603.96,283 601.46,278 "/>
    <polygon style="fill: none; fill-opacity:0; stroke-width: 2; stroke: #000000" points="611.46,283 601.46,288 603.96,283 601.46,278 "/>
    <text font-size="9.6" style="fill: #000000;text-anchor:start;font-family:monospace;font-style:normal;font-weight:normal" x="534.68" y="279.213">1</text>
    <text font-size="9.6" style="fill: #000000;text-anchor:end;font-family:monospace;font-style:normal;font-weight:normal" x="609.696" y="279">n</text>
  </g>
  <g>
    <polyline style="fill: none; fill-opacity:0; stroke-width: 2; stroke: #000000" points="854,283 854,283 757.232,283 "/>
    <polygon style="fill: #000000" points="749.732,283 759.732,278 757.232,283 759.732,288 "/>
    <polygon style="fill: none; fill-opacity:0; stroke-width: 2; stroke: #000000" points="749.732,283 759.732,278 757.232,283 759.732,288 "/>
    <text font-size="9.6" style="fill: #000000;text-anchor:end;font-family:monospace;font-style:normal;font-weight:normal" x="850" y="279">1</text>
    <text font-size="9.6" style="fill: #000000;text-anchor:start;font-family:monospace;font-style:normal;font-weight:normal" x="751.496" y="279">n</text>
  </g>
  <g>
    <rect style="fill: #ffffff" x="859.79" y="413" width="141.5" height="18"/>
    <rect style="fill: none; fill-opacity:0; stroke-width: 2; stroke: #000000" x="859.79" y="413" width="141.5" height="18"/>
    <text font-size="11.2" style="fill: #000000;text-anchor:middle;font-family:sans-serif;font-style:normal;font-weight:700" x="930.54" y="427">cashtagpost</text>
    <rect style="fill: #ffffff" x="859.79" y="431" width="141.5" height="36"/>
    <rect style="fill: none; fill-opacity:0; stroke-width: 2; stroke: #000000" x="859.79" y="431" width="141.5" height="36"/>
    <polygon style="fill: #000000" points="862.79,441 864.79,444 866.79,441 864.79,438 "/>
    <text font-size="12.8" style="fill: #000000;text-anchor:start;font-family:monospace;font-style:normal;font-weight:normal" x="868.79" y="447">chashtag</text>
    <text font-size="12.8" style="fill: #000000;text-anchor:start;font-family:monospace;font-style:normal;font-weight:normal" x="940.39" y="447">Cashtag</text>
    <line style="fill: none; fill-opacity:0; stroke-width: 1; stroke: #000000" x1="868.79" y1="448.6" x2="994.29" y2="448.6"/>
    <polygon style="fill: #000000" points="862.79,457 864.79,460 866.79,457 864.79,454 "/>
    <text font-size="12.8" style="fill: #000000;text-anchor:start;font-family:monospace;font-style:normal;font-weight:normal" x="868.79" y="463">post</text>
    <text font-size="12.8" style="fill: #000000;text-anchor:start;font-family:monospace;font-style:normal;font-weight:normal" x="940.39" y="463">Post</text>
    <line style="fill: none; fill-opacity:0; stroke-width: 1; stroke: #000000" x1="868.79" y1="464.6" x2="971.19" y2="464.6"/>
  </g>
  <g>
    <rect style="fill: #ffffff" x="863.79" y="558" width="133.8" height="18"/>
    <rect style="fill: none; fill-opacity:0; stroke-width: 2; stroke: #000000" x="863.79" y="558" width="133.8" height="18"/>
    <text font-size="11.2" style="fill: #000000;text-anchor:middle;font-family:sans-serif;font-style:normal;font-weight:700" x="930.69" y="572">cashtag</text>
    <rect style="fill: #ffffff" x="863.79" y="576" width="133.8" height="20"/>
    <rect style="fill: none; fill-opacity:0; stroke-width: 2; stroke: #000000" x="863.79" y="576" width="133.8" height="20"/>
    <polygon style="fill: #000000" points="866.79,586 868.79,589 870.79,586 868.79,583 "/>
    <text font-size="12.8" style="fill: #000000;text-anchor:start;font-family:monospace;font-style:normal;font-weight:normal" x="872.79" y="592">cashtag</text>
    <text font-size="12.8" style="fill: #000000;text-anchor:start;font-family:monospace;font-style:normal;font-weight:normal" x="936.69" y="592">varchar</text>
    <line style="fill: none; fill-opacity:0; stroke-width: 1; stroke: #000000" x1="872.79" y1="593.6" x2="990.59" y2="593.6"/>
  </g>
  <g>
    <polyline style="fill: none; fill-opacity:0; stroke-width: 2; stroke: #000000" points="930.69,558 930.69,512.5 930.54,512.5 930.54,476.736 "/>
    <polygon style="fill: #000000" points="930.54,469.236 935.54,479.236 930.54,476.736 925.54,479.236 "/>
    <polygon style="fill: none; fill-opacity:0; stroke-width: 2; stroke: #000000" points="930.54,469.236 935.54,479.236 930.54,476.736 925.54,479.236 "/>
    <text font-size="9.59863" style="fill: #000000;text-anchor:start;font-family:monospace;font-style:normal;font-weight:normal" x="934.69" y="554">1</text>
    <text font-size="9.59863" style="fill: #000000;text-anchor:start;font-family:monospace;font-style:normal;font-weight:normal" x="934.54" y="479">n</text>
  </g>
  <g>
    <polyline style="fill: none; fill-opacity:0; stroke-width: 2; stroke: #000000" points="129.14,333.154 129.14,289.42 143.648,289.42 143.648,255.423 "/>
    <polygon style="fill: #000000" points="143.648,247.923 148.648,257.923 143.648,255.423 138.648,257.923 "/>
    <polygon style="fill: none; fill-opacity:0; stroke-width: 2; stroke: #000000" points="143.648,247.923 148.648,257.923 143.648,255.423 138.648,257.923 "/>
    <text font-size="9.59863" style="fill: #000000;text-anchor:start;font-family:monospace;font-style:normal;font-weight:normal" x="133.14" y="329.154">1</text>
    <text font-size="9.59863" style="fill: #000000;text-anchor:start;font-family:monospace;font-style:normal;font-weight:normal" x="147.648" y="257.687">n</text>
  </g>
  <g>
    <polyline style="fill: none; fill-opacity:0; stroke-width: 2; stroke: #000000" points="895.15,341 895.15,377 895.165,377 895.165,403.264 "/>
    <polygon style="fill: #000000" points="895.165,410.764 890.165,400.764 895.165,403.264 900.165,400.764 "/>
    <polygon style="fill: none; fill-opacity:0; stroke-width: 2; stroke: #000000" points="895.165,410.764 890.165,400.764 895.165,403.264 900.165,400.764 "/>
    <text font-size="9.59863" style="fill: #000000;text-anchor:start;font-family:monospace;font-style:normal;font-weight:normal" x="899.15" y="353">1</text>
    <text font-size="9.59863" style="fill: #000000;text-anchor:start;font-family:monospace;font-style:normal;font-weight:normal" x="899.165" y="409">n</text>
  </g>
</svg>
