<?xml version="1.0" encoding="UTF-8" standalone="no"?>
<!DOCTYPE svg PUBLIC "-//W3C//DTD SVG 1.0//EN" "http://www.w3.org/TR/2001/PR-SVG-20010719/DTD/svg10.dtd">
<svg width="55cm" height="29cm" viewBox="-149 1 1094 564" xmlns="http://www.w3.org/2000/svg" xmlns:xlink="http://www.w3.org/1999/xlink">
  <g>
    <rect style="fill: #ffffff" x="319.88" y="159.213" width="210.8" height="18"/>
    <rect style="fill: none; fill-opacity:0; stroke-width: 2; stroke: #000000" x="319.88" y="159.213" width="210.8" height="18"/>
    <text font-size="11.2" style="fill: #000000;text-anchor:middle;font-family:sans-serif;font-style:normal;font-weight:700" x="425.28" y="173.213">User</text>
    <rect style="fill: #ffffff" x="319.88" y="177.213" width="210.8" height="212"/>
    <rect style="fill: none; fill-opacity:0; stroke-width: 2; stroke: #000000" x="319.88" y="177.213" width="210.8" height="212"/>
    <polygon style="fill: #000000" points="322.88,187.213 324.88,190.213 326.88,187.213 324.88,184.213 "/>
    <text font-size="12.8" style="fill: #000000;text-anchor:start;font-family:monospace;font-style:normal;font-weight:normal" x="328.88" y="193.213">id</text>
    <text font-size="12.8" style="fill: #000000;text-anchor:start;font-family:monospace;font-style:normal;font-weight:normal" x="431.28" y="193.213">int</text>
    <line style="fill: none; fill-opacity:0; stroke-width: 1; stroke: #000000" x1="328.88" y1="194.813" x2="454.38" y2="194.813"/>
    <ellipse style="fill: #000000" cx="324.88" cy="203.213" rx="2" ry="2"/>
    <text font-size="12.8" style="fill: #000000;text-anchor:start;font-family:monospace;font-style:normal;font-weight:normal" x="328.88" y="209.213">username</text>
    <text font-size="12.8" style="fill: #000000;text-anchor:start;font-family:monospace;font-style:normal;font-weight:normal" x="431.28" y="209.213">varchar</text>
    <ellipse style="fill: #000000" cx="324.88" cy="219.213" rx="2" ry="2"/>
    <text font-size="12.8" style="fill: #000000;text-anchor:start;font-family:monospace;font-style:normal;font-weight:normal" x="328.88" y="225.213">password</text>
    <text font-size="12.8" style="fill: #000000;text-anchor:start;font-family:monospace;font-style:normal;font-weight:normal" x="431.28" y="225.213">varchar</text>
    <ellipse style="fill: #000000" cx="324.88" cy="235.213" rx="2" ry="2"/>
    <text font-size="12.8" style="fill: #000000;text-anchor:start;font-family:monospace;font-style:normal;font-weight:normal" x="328.88" y="241.213">firstName</text>
    <text font-size="12.8" style="fill: #000000;text-anchor:start;font-family:monospace;font-style:normal;font-weight:normal" x="431.28" y="241.213">varchar</text>
    <ellipse style="fill: #000000" cx="324.88" cy="251.213" rx="2" ry="2"/>
    <text font-size="12.8" style="fill: #000000;text-anchor:start;font-family:monospace;font-style:normal;font-weight:normal" x="328.88" y="257.213">lastName</text>
    <text font-size="12.8" style="fill: #000000;text-anchor:start;font-family:monospace;font-style:normal;font-weight:normal" x="431.28" y="257.213">varchar</text>
    <ellipse style="fill: none; fill-opacity:0; stroke-width: 0.2; stroke: #000000" cx="324.88" cy="267.213" rx="2" ry="2"/>
    <text font-size="12.8" style="fill: #000000;text-anchor:start;font-family:monospace;font-style:normal;font-weight:normal" x="328.88" y="273.213">feedName</text>
    <text font-size="12.8" style="fill: #000000;text-anchor:start;font-family:monospace;font-style:normal;font-weight:normal" x="431.28" y="273.213">varchar</text>
    <ellipse style="fill: none; fill-opacity:0; stroke-width: 0.2; stroke: #000000" cx="324.88" cy="283.213" rx="2" ry="2"/>
    <text font-size="12.8" style="fill: #000000;text-anchor:start;font-family:monospace;font-style:normal;font-weight:normal" x="328.88" y="289.213">feedPassword</text>
    <text font-size="12.8" style="fill: #000000;text-anchor:start;font-family:monospace;font-style:normal;font-weight:normal" x="431.28" y="289.213">varchar</text>
    <ellipse style="fill: #000000" cx="324.88" cy="299.213" rx="2" ry="2"/>
    <text font-size="12.8" style="fill: #000000;text-anchor:start;font-family:monospace;font-style:normal;font-weight:normal" x="328.88" y="305.213">email</text>
    <text font-size="12.8" style="fill: #000000;text-anchor:start;font-family:monospace;font-style:normal;font-weight:normal" x="431.28" y="305.213">varchar</text>
    <ellipse style="fill: #000000" cx="324.88" cy="315.213" rx="2" ry="2"/>
    <text font-size="12.8" style="fill: #000000;text-anchor:start;font-family:monospace;font-style:normal;font-weight:normal" x="328.88" y="321.213">picture</text>
    <text font-size="12.8" style="fill: #000000;text-anchor:start;font-family:monospace;font-style:normal;font-weight:normal" x="431.28" y="321.213">link/varchar</text>
    <ellipse style="fill: #000000" cx="324.88" cy="331.213" rx="2" ry="2"/>
    <text font-size="12.8" style="fill: #000000;text-anchor:start;font-family:monospace;font-style:normal;font-weight:normal" x="328.88" y="337.213">geburtstag</text>
    <text font-size="12.8" style="fill: #000000;text-anchor:start;font-family:monospace;font-style:normal;font-weight:normal" x="431.28" y="337.213">date</text>
    <ellipse style="fill: #000000" cx="324.88" cy="347.213" rx="2" ry="2"/>
    <text font-size="12.8" style="fill: #000000;text-anchor:start;font-family:monospace;font-style:normal;font-weight:normal" x="328.88" y="353.213">strasse</text>
    <text font-size="12.8" style="fill: #000000;text-anchor:start;font-family:monospace;font-style:normal;font-weight:normal" x="431.28" y="353.213">varchar</text>
    <ellipse style="fill: #000000" cx="324.88" cy="363.213" rx="2" ry="2"/>
    <text font-size="12.8" style="fill: #000000;text-anchor:start;font-family:monospace;font-style:normal;font-weight:normal" x="328.88" y="369.213">hausnummer</text>
    <text font-size="12.8" style="fill: #000000;text-anchor:start;font-family:monospace;font-style:normal;font-weight:normal" x="431.28" y="369.213">varchar</text>
    <ellipse style="fill: #000000" cx="324.88" cy="379.213" rx="2" ry="2"/>
    <text font-size="12.8" style="fill: #000000;text-anchor:start;font-family:monospace;font-style:normal;font-weight:normal" x="328.88" y="385.213">ort</text>
    <text font-size="12.8" style="fill: #000000;text-anchor:start;font-family:monospace;font-style:normal;font-weight:normal" x="431.28" y="385.213">Ort/plz</text>
  </g>
  <g>
    <rect style="fill: #ffffff" x="741" y="256" width="156.9" height="18"/>
    <rect style="fill: none; fill-opacity:0; stroke-width: 2; stroke: #000000" x="741" y="256" width="156.9" height="18"/>
    <text font-size="11.2" style="fill: #000000;text-anchor:middle;font-family:sans-serif;font-style:normal;font-weight:700" x="819.45" y="270">Posts</text>
    <rect style="fill: #ffffff" x="741" y="274" width="156.9" height="68"/>
    <rect style="fill: none; fill-opacity:0; stroke-width: 2; stroke: #000000" x="741" y="274" width="156.9" height="68"/>
    <polygon style="fill: #000000" points="744,284 746,287 748,284 746,281 "/>
    <text font-size="12.8" style="fill: #000000;text-anchor:start;font-family:monospace;font-style:normal;font-weight:normal" x="750" y="290">id</text>
    <text font-size="12.8" style="fill: #000000;text-anchor:start;font-family:monospace;font-style:normal;font-weight:normal" x="837" y="290">int</text>
    <line style="fill: none; fill-opacity:0; stroke-width: 1; stroke: #000000" x1="750" y1="291.6" x2="860.1" y2="291.6"/>
    <ellipse style="fill: #000000" cx="746" cy="300" rx="2" ry="2"/>
    <text font-size="12.8" style="fill: #000000;text-anchor:start;font-family:monospace;font-style:normal;font-weight:normal" x="750" y="306">content</text>
    <text font-size="12.8" style="fill: #000000;text-anchor:start;font-family:monospace;font-style:normal;font-weight:normal" x="837" y="306">varchar</text>
    <ellipse style="fill: #000000" cx="746" cy="316" rx="2" ry="2"/>
    <text font-size="12.8" style="fill: #000000;text-anchor:start;font-family:monospace;font-style:normal;font-weight:normal" x="750" y="322">user</text>
    <text font-size="12.8" style="fill: #000000;text-anchor:start;font-family:monospace;font-style:normal;font-weight:normal" x="837" y="322">User</text>
    <ellipse style="fill: none; fill-opacity:0; stroke-width: 0.2; stroke: #000000" cx="746" cy="332" rx="2" ry="2"/>
    <text font-size="12.8" style="fill: #000000;text-anchor:start;font-family:monospace;font-style:normal;font-weight:normal" x="750" y="338">parentPost</text>
    <text font-size="12.8" style="fill: #000000;text-anchor:start;font-family:monospace;font-style:normal;font-weight:normal" x="837" y="338">Post</text>
  </g>
  <g>
    <polyline style="fill: none; fill-opacity:0; stroke-width: 2; stroke: #000000" points="530.68,168.213 635.84,168.213 635.84,284 731.264,284 "/>
    <polygon style="fill: #000000" points="738.764,284 728.764,289 731.264,284 728.764,279 "/>
    <polygon style="fill: none; fill-opacity:0; stroke-width: 2; stroke: #000000" points="738.764,284 728.764,289 731.264,284 728.764,279 "/>
    <text font-size="9.6" style="fill: #000000;text-anchor:start;font-family:monospace;font-style:normal;font-weight:normal" x="534.68" y="164.213">1</text>
    <text font-size="9.6" style="fill: #000000;text-anchor:end;font-family:monospace;font-style:normal;font-weight:normal" x="737" y="280">n</text>
  </g>
  <g>
    <rect style="fill: #ffffff" x="187.438" y="424.514" width="118.4" height="18"/>
    <rect style="fill: none; fill-opacity:0; stroke-width: 2; stroke: #000000" x="187.438" y="424.514" width="118.4" height="18"/>
    <text font-size="11.2" style="fill: #000000;text-anchor:middle;font-family:sans-serif;font-style:normal;font-weight:700" x="246.638" y="438.514">Follower</text>
    <rect style="fill: #ffffff" x="187.438" y="442.514" width="118.4" height="36"/>
    <rect style="fill: none; fill-opacity:0; stroke-width: 2; stroke: #000000" x="187.438" y="442.514" width="118.4" height="36"/>
    <polygon style="fill: #000000" points="190.438,452.514 192.438,455.514 194.438,452.514 192.438,449.514 "/>
    <text font-size="12.8" style="fill: #000000;text-anchor:start;font-family:monospace;font-style:normal;font-weight:normal" x="196.438" y="458.514">followed</text>
    <text font-size="12.8" style="fill: #000000;text-anchor:start;font-family:monospace;font-style:normal;font-weight:normal" x="268.038" y="458.514">user</text>
    <line style="fill: none; fill-opacity:0; stroke-width: 1; stroke: #000000" x1="196.438" y1="460.114" x2="298.838" y2="460.114"/>
    <polygon style="fill: #000000" points="190.438,468.514 192.438,471.514 194.438,468.514 192.438,465.514 "/>
    <text font-size="12.8" style="fill: #000000;text-anchor:start;font-family:monospace;font-style:normal;font-weight:normal" x="196.438" y="474.514">follower</text>
    <text font-size="12.8" style="fill: #000000;text-anchor:start;font-family:monospace;font-style:normal;font-weight:normal" x="268.038" y="474.514">user</text>
    <line style="fill: none; fill-opacity:0; stroke-width: 1; stroke: #000000" x1="196.438" y1="476.114" x2="298.838" y2="476.114"/>
  </g>
  <g>
    <rect style="fill: #ffffff" x="561" y="86" width="118.4" height="18"/>
    <rect style="fill: none; fill-opacity:0; stroke-width: 2; stroke: #000000" x="561" y="86" width="118.4" height="18"/>
    <text font-size="11.2" style="fill: #000000;text-anchor:middle;font-family:sans-serif;font-style:normal;font-weight:700" x="620.2" y="100">Votes</text>
    <rect style="fill: #ffffff" x="561" y="104" width="118.4" height="52"/>
    <rect style="fill: none; fill-opacity:0; stroke-width: 2; stroke: #000000" x="561" y="104" width="118.4" height="52"/>
    <polygon style="fill: #000000" points="564,114 566,117 568,114 566,111 "/>
    <text font-size="12.8" style="fill: #000000;text-anchor:start;font-family:monospace;font-style:normal;font-weight:normal" x="570" y="120">voter</text>
    <text font-size="12.8" style="fill: #000000;text-anchor:start;font-family:monospace;font-style:normal;font-weight:normal" x="618.5" y="120">user</text>
    <line style="fill: none; fill-opacity:0; stroke-width: 1; stroke: #000000" x1="570" y1="121.6" x2="649.3" y2="121.6"/>
    <polygon style="fill: #000000" points="564,130 566,133 568,130 566,127 "/>
    <text font-size="12.8" style="fill: #000000;text-anchor:start;font-family:monospace;font-style:normal;font-weight:normal" x="570" y="136">post</text>
    <text font-size="12.8" style="fill: #000000;text-anchor:start;font-family:monospace;font-style:normal;font-weight:normal" x="618.5" y="136">Posts</text>
    <line style="fill: none; fill-opacity:0; stroke-width: 1; stroke: #000000" x1="570" y1="137.6" x2="657" y2="137.6"/>
    <ellipse style="fill: #000000" cx="566" cy="146" rx="2" ry="2"/>
    <text font-size="12.8" style="fill: #000000;text-anchor:start;font-family:monospace;font-style:normal;font-weight:normal" x="570" y="152">vote</text>
    <text font-size="12.8" style="fill: #000000;text-anchor:start;font-family:monospace;font-style:normal;font-weight:normal" x="618.5" y="152">boolean</text>
  </g>
  <g>
    <polyline style="fill: none; fill-opacity:0; stroke-width: 2; stroke: #000000" points="319.88,267.213 246.638,267.213 246.638,414.778 "/>
    <polygon style="fill: #000000" points="246.638,422.278 241.638,412.278 246.638,414.778 251.638,412.278 "/>
    <polygon style="fill: none; fill-opacity:0; stroke-width: 2; stroke: #000000" points="246.638,422.278 241.638,412.278 246.638,414.778 251.638,412.278 "/>
    <text font-size="9.6" style="fill: #000000;text-anchor:end;font-family:monospace;font-style:normal;font-weight:normal" x="315.88" y="263.213">1</text>
    <text font-size="9.6" style="fill: #000000;text-anchor:start;font-family:monospace;font-style:normal;font-weight:normal" x="250.638" y="420.514">n</text>
  </g>
  <g>
    <polyline style="fill: none; fill-opacity:0; stroke-width: 2; stroke: #000000" points="477.98,159.213 477.98,95 551.264,95 "/>
    <polygon style="fill: #000000" points="558.764,95 548.764,100 551.264,95 548.764,90 "/>
    <polygon style="fill: none; fill-opacity:0; stroke-width: 2; stroke: #000000" points="558.764,95 548.764,100 551.264,95 548.764,90 "/>
    <text font-size="9.6" style="fill: #000000;text-anchor:start;font-family:monospace;font-style:normal;font-weight:normal" x="481.98" y="155.213">1</text>
    <text font-size="9.6" style="fill: #000000;text-anchor:end;font-family:monospace;font-style:normal;font-weight:normal" x="557" y="91">n</text>
  </g>
  <g>
    <polyline style="fill: none; fill-opacity:0; stroke-width: 2; stroke: #000000" points="819.45,256 819.45,114 689.136,114 "/>
    <polygon style="fill: #000000" points="681.636,114 691.636,109 689.136,114 691.636,119 "/>
    <polygon style="fill: none; fill-opacity:0; stroke-width: 2; stroke: #000000" points="681.636,114 691.636,109 689.136,114 691.636,119 "/>
    <text font-size="9.6" style="fill: #000000;text-anchor:start;font-family:monospace;font-style:normal;font-weight:normal" x="823.45" y="252">1</text>
    <text font-size="9.6" style="fill: #000000;text-anchor:start;font-family:monospace;font-style:normal;font-weight:normal" x="683.4" y="110">n</text>
  </g>
  <g>
    <polyline style="fill: none; fill-opacity:0; stroke-width: 2; stroke: #000000" points="425.28,389.213 425.28,433.514 315.574,433.514 "/>
    <polygon style="fill: #000000" points="308.074,433.514 318.074,428.514 315.574,433.514 318.074,438.514 "/>
    <polygon style="fill: none; fill-opacity:0; stroke-width: 2; stroke: #000000" points="308.074,433.514 318.074,428.514 315.574,433.514 318.074,438.514 "/>
    <text font-size="9.6" style="fill: #000000;text-anchor:start;font-family:monospace;font-style:normal;font-weight:normal" x="429.28" y="401.213">1</text>
    <text font-size="9.6" style="fill: #000000;text-anchor:start;font-family:monospace;font-style:normal;font-weight:normal" x="309.838" y="429.514">n</text>
  </g>
  <g>
    <polygon style="fill: #ffffff" points="592.686,219.736 635.786,193.876 678.886,219.736 635.786,245.596 "/>
    <polygon style="fill: none; fill-opacity:0; stroke-width: 2; stroke: #000000" points="592.686,219.736 635.786,193.876 678.886,219.736 635.786,245.596 "/>
    <text font-size="12.8" style="fill: #000000;text-anchor:end;font-family:monospace;font-style:normal;font-weight:normal" x="586.686" y="213.736"/>
    <text font-size="12.8" style="fill: #000000;text-anchor:start;font-family:monospace;font-style:normal;font-weight:normal" x="684.886" y="213.736"/>
    <text font-size="12.8" style="fill: #000000;text-anchor:middle;font-family:monospace;font-style:normal;font-weight:normal" x="635.786" y="223.736">posted</text>
  </g>
  <g>
    <rect style="fill: #ffffff" x="391.672" y="446.22" width="180" height="18"/>
    <rect style="fill: none; fill-opacity:0; stroke-width: 2; stroke: #000000" x="391.672" y="446.22" width="180" height="18"/>
    <text font-size="11.2" style="fill: #000000;text-anchor:middle;font-family:sans-serif;font-style:normal;font-weight:700" x="481.672" y="460.22">Duell</text>
    <rect style="fill: #ffffff" x="391.672" y="464.22" width="180" height="84"/>
    <rect style="fill: none; fill-opacity:0; stroke-width: 2; stroke: #000000" x="391.672" y="464.22" width="180" height="84"/>
    <polygon style="fill: #000000" points="394.672,474.22 396.672,477.22 398.672,474.22 396.672,471.22 "/>
    <text font-size="12.8" style="fill: #000000;text-anchor:start;font-family:monospace;font-style:normal;font-weight:normal" x="400.672" y="480.22">id</text>
    <text font-size="12.8" style="fill: #000000;text-anchor:start;font-family:monospace;font-style:normal;font-weight:normal" x="518.472" y="480.22">int</text>
    <line style="fill: none; fill-opacity:0; stroke-width: 1; stroke: #000000" x1="400.672" y1="481.82" x2="541.572" y2="481.82"/>
    <ellipse style="fill: #000000" cx="396.672" cy="490.22" rx="2" ry="2"/>
    <text font-size="12.8" style="fill: #000000;text-anchor:start;font-family:monospace;font-style:normal;font-weight:normal" x="400.672" y="496.22">fighter_post</text>
    <text font-size="12.8" style="fill: #000000;text-anchor:start;font-family:monospace;font-style:normal;font-weight:normal" x="518.472" y="496.22">User</text>
    <ellipse style="fill: #000000" cx="396.672" cy="506.22" rx="2" ry="2"/>
    <text font-size="12.8" style="fill: #000000;text-anchor:start;font-family:monospace;font-style:normal;font-weight:normal" x="400.672" y="512.22">fighter_repost</text>
    <text font-size="12.8" style="fill: #000000;text-anchor:start;font-family:monospace;font-style:normal;font-weight:normal" x="518.472" y="512.22">User</text>
    <ellipse style="fill: #000000" cx="396.672" cy="522.22" rx="2" ry="2"/>
    <text font-size="12.8" style="fill: #000000;text-anchor:start;font-family:monospace;font-style:normal;font-weight:normal" x="400.672" y="528.22">post</text>
    <text font-size="12.8" style="fill: #000000;text-anchor:start;font-family:monospace;font-style:normal;font-weight:normal" x="518.472" y="528.22">Repost</text>
    <ellipse style="fill: none; fill-opacity:0; stroke-width: 0.2; stroke: #000000" cx="396.672" cy="538.22" rx="2" ry="2"/>
    <text font-size="12.8" style="fill: #000000;text-anchor:start;font-family:monospace;font-style:normal;font-weight:normal" x="400.672" y="544.22">winner</text>
    <text font-size="12.8" style="fill: #000000;text-anchor:start;font-family:monospace;font-style:normal;font-weight:normal" x="518.472" y="544.22">User</text>
  </g>
  <g>
    <polyline style="fill: none; fill-opacity:0; stroke-width: 2; stroke: #000000" points="477.98,389.213 477.98,417.716 436.672,417.716 436.672,436.484 "/>
    <polygon style="fill: #000000" points="436.672,443.984 431.672,433.984 436.672,436.484 441.672,433.984 "/>
    <polygon style="fill: none; fill-opacity:0; stroke-width: 2; stroke: #000000" points="436.672,443.984 431.672,433.984 436.672,436.484 441.672,433.984 "/>
    <text font-size="9.6" style="fill: #000000;text-anchor:start;font-family:monospace;font-style:normal;font-weight:normal" x="481.98" y="401.213">1</text>
    <text font-size="9.6" style="fill: #000000;text-anchor:start;font-family:monospace;font-style:normal;font-weight:normal" x="440.672" y="442.22">n</text>
  </g>
  <g>
    <rect style="fill: #ffffff" x="718.894" y="462.072" width="226.2" height="18"/>
    <rect style="fill: none; fill-opacity:0; stroke-width: 2; stroke: #000000" x="718.894" y="462.072" width="226.2" height="18"/>
    <text font-size="11.2" style="fill: #000000;text-anchor:middle;font-family:sans-serif;font-style:normal;font-weight:700" x="831.994" y="476.072">Ergebnis</text>
    <rect style="fill: #ffffff" x="718.894" y="480.072" width="226.2" height="84"/>
    <rect style="fill: none; fill-opacity:0; stroke-width: 2; stroke: #000000" x="718.894" y="480.072" width="226.2" height="84"/>
    <polygon style="fill: #000000" points="721.894,490.072 723.894,493.072 725.894,490.072 723.894,487.072 "/>
    <text font-size="12.8" style="fill: #000000;text-anchor:start;font-family:monospace;font-style:normal;font-weight:normal" x="727.894" y="496.072">id</text>
    <text font-size="12.8" style="fill: #000000;text-anchor:start;font-family:monospace;font-style:normal;font-weight:normal" x="899.594" y="496.072">int</text>
    <line style="fill: none; fill-opacity:0; stroke-width: 1; stroke: #000000" x1="727.894" y1="497.672" x2="922.694" y2="497.672"/>
    <ellipse style="fill: #000000" cx="723.894" cy="506.072" rx="2" ry="2"/>
    <text font-size="12.8" style="fill: #000000;text-anchor:start;font-family:monospace;font-style:normal;font-weight:normal" x="727.894" y="512.072">duell</text>
    <text font-size="12.8" style="fill: #000000;text-anchor:start;font-family:monospace;font-style:normal;font-weight:normal" x="899.594" y="512.072">Duell</text>
    <ellipse style="fill: #000000" cx="723.894" cy="522.072" rx="2" ry="2"/>
    <text font-size="12.8" style="fill: #000000;text-anchor:start;font-family:monospace;font-style:normal;font-weight:normal" x="727.894" y="528.072">round</text>
    <text font-size="12.8" style="fill: #000000;text-anchor:start;font-family:monospace;font-style:normal;font-weight:normal" x="899.594" y="528.072">int</text>
    <ellipse style="fill: #000000" cx="723.894" cy="538.072" rx="2" ry="2"/>
    <text font-size="12.8" style="fill: #000000;text-anchor:start;font-family:monospace;font-style:normal;font-weight:normal" x="727.894" y="544.072">fighter_post_action</text>
    <text font-size="12.8" style="fill: #000000;text-anchor:start;font-family:monospace;font-style:normal;font-weight:normal" x="899.594" y="544.072">int</text>
    <ellipse style="fill: #000000" cx="723.894" cy="554.072" rx="2" ry="2"/>
    <text font-size="12.8" style="fill: #000000;text-anchor:start;font-family:monospace;font-style:normal;font-weight:normal" x="727.894" y="560.072">fighter_repost_action</text>
    <text font-size="12.8" style="fill: #000000;text-anchor:start;font-family:monospace;font-style:normal;font-weight:normal" x="899.594" y="560.072">int</text>
  </g>
  <g>
    <polyline style="fill: none; fill-opacity:0; stroke-width: 2; stroke: #000000" points="571.672,522.22 645.283,522.22 645.283,522.072 709.158,522.072 "/>
    <polygon style="fill: #000000" points="716.658,522.072 706.658,527.072 709.158,522.072 706.658,517.072 "/>
    <polygon style="fill: none; fill-opacity:0; stroke-width: 2; stroke: #000000" points="716.658,522.072 706.658,527.072 709.158,522.072 706.658,517.072 "/>
    <text font-size="9.6" style="fill: #000000;text-anchor:start;font-family:monospace;font-style:normal;font-weight:normal" x="575.672" y="518.22">1</text>
    <text font-size="9.6" style="fill: #000000;text-anchor:end;font-family:monospace;font-style:normal;font-weight:normal" x="714.894" y="518.072">n</text>
  </g>
  <g>
    <rect style="fill: #ffffff" x="88.2976" y="175.687" width="110.7" height="18"/>
    <rect style="fill: none; fill-opacity:0; stroke-width: 2; stroke: #000000" x="88.2976" y="175.687" width="110.7" height="18"/>
    <text font-size="11.2" style="fill: #000000;text-anchor:middle;font-family:sans-serif;font-style:normal;font-weight:700" x="143.648" y="189.687">Account</text>
    <rect style="fill: #ffffff" x="88.2976" y="193.687" width="110.7" height="52"/>
    <rect style="fill: none; fill-opacity:0; stroke-width: 2; stroke: #000000" x="88.2976" y="193.687" width="110.7" height="52"/>
    <polygon style="fill: #000000" points="91.2976,203.687 93.2976,206.687 95.2976,203.687 93.2976,200.687 "/>
    <text font-size="12.8" style="fill: #000000;text-anchor:start;font-family:monospace;font-style:normal;font-weight:normal" x="97.2976" y="209.687">iban</text>
    <text font-size="12.8" style="fill: #000000;text-anchor:start;font-family:monospace;font-style:normal;font-weight:normal" x="138.098" y="209.687">varchar</text>
    <line style="fill: none; fill-opacity:0; stroke-width: 1; stroke: #000000" x1="97.2976" y1="211.287" x2="191.998" y2="211.287"/>
    <ellipse style="fill: none; fill-opacity:0; stroke-width: 0.2; stroke: #000000" cx="93.2976" cy="219.687" rx="2" ry="2"/>
    <text font-size="12.8" style="fill: #000000;text-anchor:start;font-family:monospace;font-style:normal;font-weight:normal" x="97.2976" y="225.687">bic</text>
    <text font-size="12.8" style="fill: #000000;text-anchor:start;font-family:monospace;font-style:normal;font-weight:normal" x="138.098" y="225.687">varchar</text>
    <ellipse style="fill: none; fill-opacity:0; stroke-width: 0.2; stroke: #000000" cx="93.2976" cy="235.687" rx="2" ry="2"/>
    <text font-size="12.8" style="fill: #000000;text-anchor:start;font-family:monospace;font-style:normal;font-weight:normal" x="97.2976" y="241.687">user</text>
    <text font-size="12.8" style="fill: #000000;text-anchor:start;font-family:monospace;font-style:normal;font-weight:normal" x="138.098" y="241.687">User</text>
  </g>
  <g>
    <rect style="fill: #ffffff" x="-148.21" y="176.154" width="103" height="18"/>
    <rect style="fill: none; fill-opacity:0; stroke-width: 2; stroke: #000000" x="-148.21" y="176.154" width="103" height="18"/>
    <text font-size="11.2" style="fill: #000000;text-anchor:middle;font-family:sans-serif;font-style:normal;font-weight:700" x="-96.71" y="190.154">BIC</text>
    <rect style="fill: #ffffff" x="-148.21" y="194.154" width="103" height="20"/>
    <rect style="fill: none; fill-opacity:0; stroke-width: 2; stroke: #000000" x="-148.21" y="194.154" width="103" height="20"/>
    <polygon style="fill: #000000" points="-145.21,204.154 -143.21,207.154 -141.21,204.154 -143.21,201.154 "/>
    <text font-size="12.8" style="fill: #000000;text-anchor:start;font-family:monospace;font-style:normal;font-weight:normal" x="-139.21" y="210.154">bic</text>
    <text font-size="12.8" style="fill: #000000;text-anchor:start;font-family:monospace;font-style:normal;font-weight:normal" x="-106.11" y="210.154">varchar</text>
    <line style="fill: none; fill-opacity:0; stroke-width: 1; stroke: #000000" x1="-139.21" y1="211.754" x2="-52.21" y2="211.754"/>
  </g>
  <g>
    <polyline style="fill: none; fill-opacity:0; stroke-width: 2; stroke: #000000" points="319.88,235.213 259.439,235.213 259.439,219.687 208.734,219.687 "/>
    <polygon style="fill: #000000" points="201.234,219.687 211.234,214.687 208.734,219.687 211.234,224.687 "/>
    <polygon style="fill: none; fill-opacity:0; stroke-width: 2; stroke: #000000" points="201.234,219.687 211.234,214.687 208.734,219.687 211.234,224.687 "/>
    <text font-size="9.6" style="fill: #000000;text-anchor:end;font-family:monospace;font-style:normal;font-weight:normal" x="315.88" y="231.213">1</text>
    <text font-size="9.6" style="fill: #000000;text-anchor:start;font-family:monospace;font-style:normal;font-weight:normal" x="202.998" y="215.687">n</text>
  </g>
  <g>
    <polyline style="fill: none; fill-opacity:0; stroke-width: 2; stroke: #000000" points="-45.21,204.154 21.5438,204.154 21.5438,203.687 78.5615,203.687 "/>
    <polygon style="fill: #000000" points="86.0615,203.687 76.0615,208.687 78.5615,203.687 76.0615,198.687 "/>
    <polygon style="fill: none; fill-opacity:0; stroke-width: 2; stroke: #000000" points="86.0615,203.687 76.0615,208.687 78.5615,203.687 76.0615,198.687 "/>
    <text font-size="9.6" style="fill: #000000;text-anchor:start;font-family:monospace;font-style:normal;font-weight:normal" x="-41.21" y="200.154">1</text>
    <text font-size="9.6" style="fill: #000000;text-anchor:end;font-family:monospace;font-style:normal;font-weight:normal" x="84.2976" y="199.687">n</text>
  </g>
  <g>
    <rect style="fill: #ffffff" x="326.79" y="1" width="103" height="18"/>
    <rect style="fill: none; fill-opacity:0; stroke-width: 2; stroke: #000000" x="326.79" y="1" width="103" height="18"/>
    <text font-size="11.2" style="fill: #000000;text-anchor:middle;font-family:sans-serif;font-style:normal;font-weight:700" x="378.29" y="15">Ort</text>
    <rect style="fill: #ffffff" x="326.79" y="19" width="103" height="36"/>
    <rect style="fill: none; fill-opacity:0; stroke-width: 2; stroke: #000000" x="326.79" y="19" width="103" height="36"/>
    <polygon style="fill: #000000" points="329.79,29 331.79,32 333.79,29 331.79,26 "/>
    <text font-size="12.8" style="fill: #000000;text-anchor:start;font-family:monospace;font-style:normal;font-weight:normal" x="335.79" y="35">zip</text>
    <text font-size="12.8" style="fill: #000000;text-anchor:start;font-family:monospace;font-style:normal;font-weight:normal" x="368.89" y="35">varchar</text>
    <line style="fill: none; fill-opacity:0; stroke-width: 1; stroke: #000000" x1="335.79" y1="36.6" x2="422.79" y2="36.6"/>
    <ellipse style="fill: #000000" cx="331.79" cy="45" rx="2" ry="2"/>
    <text font-size="12.8" style="fill: #000000;text-anchor:start;font-family:monospace;font-style:normal;font-weight:normal" x="335.79" y="51">ort</text>
    <text font-size="12.8" style="fill: #000000;text-anchor:start;font-family:monospace;font-style:normal;font-weight:normal" x="368.89" y="51">varchar</text>
  </g>
  <g>
    <polyline style="fill: none; fill-opacity:0; stroke-width: 2; stroke: #000000" points="372.58,159.213 372.58,107.106 378.29,107.106 378.29,64.7361 "/>
    <polygon style="fill: #000000" points="378.29,57.2361 383.29,67.2361 378.29,64.7361 373.29,67.2361 "/>
    <polygon style="fill: none; fill-opacity:0; stroke-width: 2; stroke: #000000" points="378.29,57.2361 383.29,67.2361 378.29,64.7361 373.29,67.2361 "/>
    <text font-size="9.6" style="fill: #000000;text-anchor:start;font-family:monospace;font-style:normal;font-weight:normal" x="376.58" y="155.213">1</text>
    <text font-size="9.6" style="fill: #000000;text-anchor:start;font-family:monospace;font-style:normal;font-weight:normal" x="382.29" y="67">n</text>
  </g>
  <g>
    <polyline style="fill: none; fill-opacity:0; stroke-width: 2; stroke: #000000" points="571.672,474.22 656.336,474.22 656.336,316 731.264,316 "/>
    <polygon style="fill: #000000" points="738.764,316 728.764,321 731.264,316 728.764,311 "/>
    <polygon style="fill: none; fill-opacity:0; stroke-width: 2; stroke: #000000" points="738.764,316 728.764,321 731.264,316 728.764,311 "/>
    <text font-size="9.59863" style="fill: #000000;text-anchor:start;font-family:monospace;font-style:normal;font-weight:normal" x="575.672" y="470.22">c</text>
    <text font-size="9.59863" style="fill: #000000;text-anchor:end;font-family:monospace;font-style:normal;font-weight:normal" x="737" y="312">1</text>
  </g>
</svg>
