<?xml version="1.0" encoding="UTF-8" standalone="no"?>
<!DOCTYPE svg PUBLIC "-//W3C//DTD SVG 1.0//EN" "http://www.w3.org/TR/2001/PR-SVG-20010719/DTD/svg10.dtd">
<svg width="61cm" height="34cm" viewBox="-149 1 1205 664" xmlns="http://www.w3.org/2000/svg" xmlns:xlink="http://www.w3.org/1999/xlink">
  <g>
    <rect style="fill: #ffffff" x="319.88" y="159.213" width="203.1" height="18"/>
    <rect style="fill: none; fill-opacity:0; stroke-width: 2; stroke: #000000" x="319.88" y="159.213" width="203.1" height="18"/>
    <text font-size="11.2" style="fill: #000000;text-anchor:middle;font-family:sans-serif;font-style:normal;font-weight:700" x="421.43" y="173.213">user</text>
    <rect style="fill: #ffffff" x="319.88" y="177.213" width="203.1" height="180"/>
    <rect style="fill: none; fill-opacity:0; stroke-width: 2; stroke: #000000" x="319.88" y="177.213" width="203.1" height="180"/>
    <polygon style="fill: #000000" points="322.88,187.213 324.88,190.213 326.88,187.213 324.88,184.213 "/>
    <text font-size="12.8" style="fill: #000000;text-anchor:start;font-family:monospace;font-style:normal;font-weight:normal" x="328.88" y="193.213">username</text>
    <text font-size="12.8" style="fill: #000000;text-anchor:start;font-family:monospace;font-style:normal;font-weight:normal" x="423.58" y="193.213">varchar</text>
    <line style="fill: none; fill-opacity:0; stroke-width: 1; stroke: #000000" x1="328.88" y1="194.813" x2="477.48" y2="194.813"/>
    <ellipse style="fill: #000000" cx="324.88" cy="203.213" rx="2" ry="2"/>
    <text font-size="12.8" style="fill: #000000;text-anchor:start;font-family:monospace;font-style:normal;font-weight:normal" x="328.88" y="209.213">password</text>
    <text font-size="12.8" style="fill: #000000;text-anchor:start;font-family:monospace;font-style:normal;font-weight:normal" x="423.58" y="209.213">varchar</text>
    <ellipse style="fill: #000000" cx="324.88" cy="219.213" rx="2" ry="2"/>
    <text font-size="12.8" style="fill: #000000;text-anchor:start;font-family:monospace;font-style:normal;font-weight:normal" x="328.88" y="225.213">firstName</text>
    <text font-size="12.8" style="fill: #000000;text-anchor:start;font-family:monospace;font-style:normal;font-weight:normal" x="423.58" y="225.213">varchar</text>
    <ellipse style="fill: #000000" cx="324.88" cy="235.213" rx="2" ry="2"/>
    <text font-size="12.8" style="fill: #000000;text-anchor:start;font-family:monospace;font-style:normal;font-weight:normal" x="328.88" y="241.213">lastName</text>
    <text font-size="12.8" style="fill: #000000;text-anchor:start;font-family:monospace;font-style:normal;font-weight:normal" x="423.58" y="241.213">varchar</text>
    <ellipse style="fill: none; fill-opacity:0; stroke-width: 0.2; stroke: #000000" cx="324.88" cy="251.213" rx="2" ry="2"/>
    <text font-size="12.8" style="fill: #000000;text-anchor:start;font-family:monospace;font-style:normal;font-weight:normal" x="328.88" y="257.213">feedUrl</text>
    <text font-size="12.8" style="fill: #000000;text-anchor:start;font-family:monospace;font-style:normal;font-weight:normal" x="423.58" y="257.213">varchar</text>
    <ellipse style="fill: #000000" cx="324.88" cy="267.213" rx="2" ry="2"/>
    <text font-size="12.8" style="fill: #000000;text-anchor:start;font-family:monospace;font-style:normal;font-weight:normal" x="328.88" y="273.213">email</text>
    <text font-size="12.8" style="fill: #000000;text-anchor:start;font-family:monospace;font-style:normal;font-weight:normal" x="423.58" y="273.213">varchar</text>
    <ellipse style="fill: none; fill-opacity:0; stroke-width: 0.2; stroke: #000000" cx="324.88" cy="283.213" rx="2" ry="2"/>
    <text font-size="12.8" style="fill: #000000;text-anchor:start;font-family:monospace;font-style:normal;font-weight:normal" x="328.88" y="289.213">picture</text>
    <text font-size="12.8" style="fill: #000000;text-anchor:start;font-family:monospace;font-style:normal;font-weight:normal" x="423.58" y="289.213">link/varchar</text>
    <ellipse style="fill: #000000" cx="324.88" cy="299.213" rx="2" ry="2"/>
    <text font-size="12.8" style="fill: #000000;text-anchor:start;font-family:monospace;font-style:normal;font-weight:normal" x="328.88" y="305.213">birthday</text>
    <text font-size="12.8" style="fill: #000000;text-anchor:start;font-family:monospace;font-style:normal;font-weight:normal" x="423.58" y="305.213">date</text>
    <ellipse style="fill: #000000" cx="324.88" cy="315.213" rx="2" ry="2"/>
    <text font-size="12.8" style="fill: #000000;text-anchor:start;font-family:monospace;font-style:normal;font-weight:normal" x="328.88" y="321.213">street</text>
    <text font-size="12.8" style="fill: #000000;text-anchor:start;font-family:monospace;font-style:normal;font-weight:normal" x="423.58" y="321.213">varchar</text>
    <ellipse style="fill: #000000" cx="324.88" cy="331.213" rx="2" ry="2"/>
    <text font-size="12.8" style="fill: #000000;text-anchor:start;font-family:monospace;font-style:normal;font-weight:normal" x="328.88" y="337.213">housenumber</text>
    <text font-size="12.8" style="fill: #000000;text-anchor:start;font-family:monospace;font-style:normal;font-weight:normal" x="423.58" y="337.213">varchar</text>
    <ellipse style="fill: #000000" cx="324.88" cy="347.213" rx="2" ry="2"/>
    <text font-size="12.8" style="fill: #000000;text-anchor:start;font-family:monospace;font-style:normal;font-weight:normal" x="328.88" y="353.213">zip</text>
    <text font-size="12.8" style="fill: #000000;text-anchor:start;font-family:monospace;font-style:normal;font-weight:normal" x="423.58" y="353.213">Ort/plz</text>
  </g>
  <g>
    <rect style="fill: #ffffff" x="891" y="251" width="164.6" height="18"/>
    <rect style="fill: none; fill-opacity:0; stroke-width: 2; stroke: #000000" x="891" y="251" width="164.6" height="18"/>
    <text font-size="11.2" style="fill: #000000;text-anchor:middle;font-family:sans-serif;font-style:normal;font-weight:700" x="973.3" y="265">posts</text>
    <rect style="fill: #ffffff" x="891" y="269" width="164.6" height="84"/>
    <rect style="fill: none; fill-opacity:0; stroke-width: 2; stroke: #000000" x="891" y="269" width="164.6" height="84"/>
    <polygon style="fill: #000000" points="894,279 896,282 898,279 896,276 "/>
    <text font-size="12.8" style="fill: #000000;text-anchor:start;font-family:monospace;font-style:normal;font-weight:normal" x="900" y="285">id</text>
    <text font-size="12.8" style="fill: #000000;text-anchor:start;font-family:monospace;font-style:normal;font-weight:normal" x="987" y="285">int</text>
    <line style="fill: none; fill-opacity:0; stroke-width: 1; stroke: #000000" x1="900" y1="286.6" x2="1010.1" y2="286.6"/>
    <ellipse style="fill: #000000" cx="896" cy="295" rx="2" ry="2"/>
    <text font-size="12.8" style="fill: #000000;text-anchor:start;font-family:monospace;font-style:normal;font-weight:normal" x="900" y="301">content</text>
    <text font-size="12.8" style="fill: #000000;text-anchor:start;font-family:monospace;font-style:normal;font-weight:normal" x="987" y="301">varchar</text>
    <ellipse style="fill: #000000" cx="896" cy="311" rx="2" ry="2"/>
    <text font-size="12.8" style="fill: #000000;text-anchor:start;font-family:monospace;font-style:normal;font-weight:normal" x="900" y="317">user</text>
    <text font-size="12.8" style="fill: #000000;text-anchor:start;font-family:monospace;font-style:normal;font-weight:normal" x="987" y="317">User</text>
    <ellipse style="fill: none; fill-opacity:0; stroke-width: 0.2; stroke: #000000" cx="896" cy="327" rx="2" ry="2"/>
    <text font-size="12.8" style="fill: #000000;text-anchor:start;font-family:monospace;font-style:normal;font-weight:normal" x="900" y="333">parentPost</text>
    <text font-size="12.8" style="fill: #000000;text-anchor:start;font-family:monospace;font-style:normal;font-weight:normal" x="987" y="333">Post</text>
    <ellipse style="fill: none; fill-opacity:0; stroke-width: 0.2; stroke: #000000" cx="896" cy="343" rx="2" ry="2"/>
    <text font-size="12.8" style="fill: #000000;text-anchor:start;font-family:monospace;font-style:normal;font-weight:normal" x="900" y="349">datePosted</text>
    <text font-size="12.8" style="fill: #000000;text-anchor:start;font-family:monospace;font-style:normal;font-weight:normal" x="987" y="349">datetime</text>
  </g>
  <g>
    <polyline style="fill: none; fill-opacity:0; stroke-width: 2; stroke: #000000" points="522.98,168.213 837.696,168.213 837.696,260 881.264,260 "/>
    <polygon style="fill: #000000" points="888.764,260 878.764,265 881.264,260 878.764,255 "/>
    <polygon style="fill: none; fill-opacity:0; stroke-width: 2; stroke: #000000" points="888.764,260 878.764,265 881.264,260 878.764,255 "/>
    <text font-size="9.6" style="fill: #000000;text-anchor:start;font-family:monospace;font-style:normal;font-weight:normal" x="526.98" y="164.213">1</text>
    <text font-size="9.6" style="fill: #000000;text-anchor:end;font-family:monospace;font-style:normal;font-weight:normal" x="887" y="256">n</text>
  </g>
  <g>
    <rect style="fill: #ffffff" x="187.438" y="424.514" width="118.4" height="18"/>
    <rect style="fill: none; fill-opacity:0; stroke-width: 2; stroke: #000000" x="187.438" y="424.514" width="118.4" height="18"/>
    <text font-size="11.2" style="fill: #000000;text-anchor:middle;font-family:sans-serif;font-style:normal;font-weight:700" x="246.638" y="438.514">follower</text>
    <rect style="fill: #ffffff" x="187.438" y="442.514" width="118.4" height="36"/>
    <rect style="fill: none; fill-opacity:0; stroke-width: 2; stroke: #000000" x="187.438" y="442.514" width="118.4" height="36"/>
    <polygon style="fill: #000000" points="190.438,452.514 192.438,455.514 194.438,452.514 192.438,449.514 "/>
    <text font-size="12.8" style="fill: #000000;text-anchor:start;font-family:monospace;font-style:normal;font-weight:normal" x="196.438" y="458.514">followed</text>
    <text font-size="12.8" style="fill: #000000;text-anchor:start;font-family:monospace;font-style:normal;font-weight:normal" x="268.038" y="458.514">user</text>
    <line style="fill: none; fill-opacity:0; stroke-width: 1; stroke: #000000" x1="196.438" y1="460.114" x2="298.838" y2="460.114"/>
    <polygon style="fill: #000000" points="190.438,468.514 192.438,471.514 194.438,468.514 192.438,465.514 "/>
    <text font-size="12.8" style="fill: #000000;text-anchor:start;font-family:monospace;font-style:normal;font-weight:normal" x="196.438" y="474.514">follower</text>
    <text font-size="12.8" style="fill: #000000;text-anchor:start;font-family:monospace;font-style:normal;font-weight:normal" x="268.038" y="474.514">user</text>
    <line style="fill: none; fill-opacity:0; stroke-width: 1; stroke: #000000" x1="196.438" y1="476.114" x2="298.838" y2="476.114"/>
  </g>
  <g>
    <rect style="fill: #ffffff" x="561" y="86" width="118.4" height="18"/>
    <rect style="fill: none; fill-opacity:0; stroke-width: 2; stroke: #000000" x="561" y="86" width="118.4" height="18"/>
    <text font-size="11.2" style="fill: #000000;text-anchor:middle;font-family:sans-serif;font-style:normal;font-weight:700" x="620.2" y="100">votes</text>
    <rect style="fill: #ffffff" x="561" y="104" width="118.4" height="52"/>
    <rect style="fill: none; fill-opacity:0; stroke-width: 2; stroke: #000000" x="561" y="104" width="118.4" height="52"/>
    <polygon style="fill: #000000" points="564,114 566,117 568,114 566,111 "/>
    <text font-size="12.8" style="fill: #000000;text-anchor:start;font-family:monospace;font-style:normal;font-weight:normal" x="570" y="120">voter</text>
    <text font-size="12.8" style="fill: #000000;text-anchor:start;font-family:monospace;font-style:normal;font-weight:normal" x="618.5" y="120">user</text>
    <line style="fill: none; fill-opacity:0; stroke-width: 1; stroke: #000000" x1="570" y1="121.6" x2="649.3" y2="121.6"/>
    <polygon style="fill: #000000" points="564,130 566,133 568,130 566,127 "/>
    <text font-size="12.8" style="fill: #000000;text-anchor:start;font-family:monospace;font-style:normal;font-weight:normal" x="570" y="136">post</text>
    <text font-size="12.8" style="fill: #000000;text-anchor:start;font-family:monospace;font-style:normal;font-weight:normal" x="618.5" y="136">Posts</text>
    <line style="fill: none; fill-opacity:0; stroke-width: 1; stroke: #000000" x1="570" y1="137.6" x2="657" y2="137.6"/>
    <ellipse style="fill: #000000" cx="566" cy="146" rx="2" ry="2"/>
    <text font-size="12.8" style="fill: #000000;text-anchor:start;font-family:monospace;font-style:normal;font-weight:normal" x="570" y="152">vote</text>
    <text font-size="12.8" style="fill: #000000;text-anchor:start;font-family:monospace;font-style:normal;font-weight:normal" x="618.5" y="152">tinyint</text>
  </g>
  <g>
    <polyline style="fill: none; fill-opacity:0; stroke-width: 2; stroke: #000000" points="319.88,267.212 319.88,345.863 246.638,345.863 246.638,414.778 "/>
    <polygon style="fill: #000000" points="246.638,422.278 241.638,412.278 246.638,414.778 251.638,412.278 "/>
    <polygon style="fill: none; fill-opacity:0; stroke-width: 2; stroke: #000000" points="246.638,422.278 241.638,412.278 246.638,414.778 251.638,412.278 "/>
    <text font-size="9.6" style="fill: #000000;text-anchor:start;font-family:monospace;font-style:normal;font-weight:normal" x="323.88" y="279.212">1</text>
    <text font-size="9.6" style="fill: #000000;text-anchor:start;font-family:monospace;font-style:normal;font-weight:normal" x="250.638" y="420.514">c/n</text>
  </g>
  <g>
    <polyline style="fill: none; fill-opacity:0; stroke-width: 2; stroke: #000000" points="472.205,159.213 472.205,95 551.264,95 "/>
    <polygon style="fill: #000000" points="558.764,95 548.764,100 551.264,95 548.764,90 "/>
    <polygon style="fill: none; fill-opacity:0; stroke-width: 2; stroke: #000000" points="558.764,95 548.764,100 551.264,95 548.764,90 "/>
    <text font-size="9.6" style="fill: #000000;text-anchor:start;font-family:monospace;font-style:normal;font-weight:normal" x="476.205" y="155.213">1</text>
    <text font-size="9.6" style="fill: #000000;text-anchor:end;font-family:monospace;font-style:normal;font-weight:normal" x="557" y="91">n</text>
  </g>
  <g>
    <polyline style="fill: none; fill-opacity:0; stroke-width: 2; stroke: #000000" points="932.15,251 932.15,114 689.136,114 "/>
    <polygon style="fill: #000000" points="681.636,114 691.636,109 689.136,114 691.636,119 "/>
    <polygon style="fill: none; fill-opacity:0; stroke-width: 2; stroke: #000000" points="681.636,114 691.636,109 689.136,114 691.636,119 "/>
    <text font-size="9.6" style="fill: #000000;text-anchor:start;font-family:monospace;font-style:normal;font-weight:normal" x="936.15" y="247">1</text>
    <text font-size="9.6" style="fill: #000000;text-anchor:start;font-family:monospace;font-style:normal;font-weight:normal" x="683.4" y="110">n</text>
  </g>
  <g>
    <polyline style="fill: none; fill-opacity:0; stroke-width: 2; stroke: #000000" points="319.88,357.213 319.88,377.213 339.88,377.213 339.88,433.514 315.574,433.514 "/>
    <polygon style="fill: #000000" points="308.074,433.514 318.074,428.514 315.574,433.514 318.074,438.514 "/>
    <polygon style="fill: none; fill-opacity:0; stroke-width: 2; stroke: #000000" points="308.074,433.514 318.074,428.514 315.574,433.514 318.074,438.514 "/>
    <text font-size="9.6" style="fill: #000000;text-anchor:start;font-family:monospace;font-style:normal;font-weight:normal" x="323.88" y="369.213">1</text>
    <text font-size="9.6" style="fill: #000000;text-anchor:start;font-family:monospace;font-style:normal;font-weight:normal" x="309.838" y="429.514">c/n</text>
  </g>
  <g>
    <polygon style="fill: #ffffff" points="794.686,205.736 837.786,179.876 880.886,205.736 837.786,231.596 "/>
    <polygon style="fill: none; fill-opacity:0; stroke-width: 2; stroke: #000000" points="794.686,205.736 837.786,179.876 880.886,205.736 837.786,231.596 "/>
    <text font-size="12.8" style="fill: #000000;text-anchor:end;font-family:monospace;font-style:normal;font-weight:normal" x="788.686" y="199.736"/>
    <text font-size="12.8" style="fill: #000000;text-anchor:start;font-family:monospace;font-style:normal;font-weight:normal" x="886.886" y="199.736"/>
    <text font-size="12.8" style="fill: #000000;text-anchor:middle;font-family:monospace;font-style:normal;font-weight:normal" x="837.786" y="209.736">posted</text>
  </g>
  <g>
    <rect style="fill: #ffffff" x="315.672" y="505.22" width="156.9" height="18"/>
    <rect style="fill: none; fill-opacity:0; stroke-width: 2; stroke: #000000" x="315.672" y="505.22" width="156.9" height="18"/>
    <text font-size="11.2" style="fill: #000000;text-anchor:middle;font-family:sans-serif;font-style:normal;font-weight:700" x="394.122" y="519.22">duell</text>
    <rect style="fill: #ffffff" x="315.672" y="523.22" width="156.9" height="84"/>
    <rect style="fill: none; fill-opacity:0; stroke-width: 2; stroke: #000000" x="315.672" y="523.22" width="156.9" height="84"/>
    <polygon style="fill: #000000" points="318.672,533.22 320.672,536.22 322.672,533.22 320.672,530.22 "/>
    <text font-size="12.8" style="fill: #000000;text-anchor:start;font-family:monospace;font-style:normal;font-weight:normal" x="324.672" y="539.22">id</text>
    <text font-size="12.8" style="fill: #000000;text-anchor:start;font-family:monospace;font-style:normal;font-weight:normal" x="434.772" y="539.22">int</text>
    <line style="fill: none; fill-opacity:0; stroke-width: 1; stroke: #000000" x1="324.672" y1="540.82" x2="457.872" y2="540.82"/>
    <ellipse style="fill: #000000" cx="320.672" cy="549.22" rx="2" ry="2"/>
    <text font-size="12.8" style="fill: #000000;text-anchor:start;font-family:monospace;font-style:normal;font-weight:normal" x="324.672" y="555.22">fighterPost</text>
    <text font-size="12.8" style="fill: #000000;text-anchor:start;font-family:monospace;font-style:normal;font-weight:normal" x="434.772" y="555.22">User</text>
    <ellipse style="fill: #000000" cx="320.672" cy="565.22" rx="2" ry="2"/>
    <text font-size="12.8" style="fill: #000000;text-anchor:start;font-family:monospace;font-style:normal;font-weight:normal" x="324.672" y="571.22">fighterRepost</text>
    <text font-size="12.8" style="fill: #000000;text-anchor:start;font-family:monospace;font-style:normal;font-weight:normal" x="434.772" y="571.22">User</text>
    <ellipse style="fill: #000000" cx="320.672" cy="581.22" rx="2" ry="2"/>
    <text font-size="12.8" style="fill: #000000;text-anchor:start;font-family:monospace;font-style:normal;font-weight:normal" x="324.672" y="587.22">post</text>
    <text font-size="12.8" style="fill: #000000;text-anchor:start;font-family:monospace;font-style:normal;font-weight:normal" x="434.772" y="587.22">Post</text>
    <ellipse style="fill: none; fill-opacity:0; stroke-width: 0.2; stroke: #000000" cx="320.672" cy="597.22" rx="2" ry="2"/>
    <text font-size="12.8" style="fill: #000000;text-anchor:start;font-family:monospace;font-style:normal;font-weight:normal" x="324.672" y="603.22">winner</text>
    <text font-size="12.8" style="fill: #000000;text-anchor:start;font-family:monospace;font-style:normal;font-weight:normal" x="434.772" y="603.22">User</text>
  </g>
  <g>
    <polyline style="fill: none; fill-opacity:0; stroke-width: 2; stroke: #000000" points="370.655,357.213 370.655,431.216 354.897,431.216 354.897,495.484 "/>
    <polygon style="fill: #000000" points="354.897,502.984 349.897,492.984 354.897,495.484 359.897,492.984 "/>
    <polygon style="fill: none; fill-opacity:0; stroke-width: 2; stroke: #000000" points="354.897,502.984 349.897,492.984 354.897,495.484 359.897,492.984 "/>
    <text font-size="9.6" style="fill: #000000;text-anchor:start;font-family:monospace;font-style:normal;font-weight:normal" x="374.655" y="369.213">1</text>
    <text font-size="9.6" style="fill: #000000;text-anchor:start;font-family:monospace;font-style:normal;font-weight:normal" x="358.897" y="501.22">c/n</text>
  </g>
  <g>
    <rect style="fill: #ffffff" x="575.894" y="578.072" width="210.8" height="18"/>
    <rect style="fill: none; fill-opacity:0; stroke-width: 2; stroke: #000000" x="575.894" y="578.072" width="210.8" height="18"/>
    <text font-size="11.2" style="fill: #000000;text-anchor:middle;font-family:sans-serif;font-style:normal;font-weight:700" x="681.294" y="592.072">round</text>
    <rect style="fill: #ffffff" x="575.894" y="596.072" width="210.8" height="68"/>
    <rect style="fill: none; fill-opacity:0; stroke-width: 2; stroke: #000000" x="575.894" y="596.072" width="210.8" height="68"/>
    <polygon style="fill: #000000" points="578.894,606.072 580.894,609.072 582.894,606.072 580.894,603.072 "/>
    <text font-size="12.8" style="fill: #000000;text-anchor:start;font-family:monospace;font-style:normal;font-weight:normal" x="584.894" y="612.072">duell</text>
    <text font-size="12.8" style="fill: #000000;text-anchor:start;font-family:monospace;font-style:normal;font-weight:normal" x="741.194" y="612.072">Duell</text>
    <line style="fill: none; fill-opacity:0; stroke-width: 1; stroke: #000000" x1="584.894" y1="613.672" x2="779.694" y2="613.672"/>
    <polygon style="fill: #000000" points="578.894,622.072 580.894,625.072 582.894,622.072 580.894,619.072 "/>
    <text font-size="12.8" style="fill: #000000;text-anchor:start;font-family:monospace;font-style:normal;font-weight:normal" x="584.894" y="628.072">round</text>
    <text font-size="12.8" style="fill: #000000;text-anchor:start;font-family:monospace;font-style:normal;font-weight:normal" x="741.194" y="628.072">int</text>
    <line style="fill: none; fill-opacity:0; stroke-width: 1; stroke: #000000" x1="584.894" y1="629.672" x2="764.294" y2="629.672"/>
    <ellipse style="fill: #000000" cx="580.894" cy="638.072" rx="2" ry="2"/>
    <text font-size="12.8" style="fill: #000000;text-anchor:start;font-family:monospace;font-style:normal;font-weight:normal" x="584.894" y="644.072">fighterPostAction</text>
    <text font-size="12.8" style="fill: #000000;text-anchor:start;font-family:monospace;font-style:normal;font-weight:normal" x="741.194" y="644.072">int</text>
    <ellipse style="fill: #000000" cx="580.894" cy="654.072" rx="2" ry="2"/>
    <text font-size="12.8" style="fill: #000000;text-anchor:start;font-family:monospace;font-style:normal;font-weight:normal" x="584.894" y="660.072">fighterRepostAction</text>
    <text font-size="12.8" style="fill: #000000;text-anchor:start;font-family:monospace;font-style:normal;font-weight:normal" x="741.194" y="660.072">int</text>
  </g>
  <g>
    <polyline style="fill: none; fill-opacity:0; stroke-width: 2; stroke: #000000" points="472.572,581.22 524.233,581.22 524.233,622.072 566.158,622.072 "/>
    <polygon style="fill: #000000" points="573.658,622.072 563.658,627.072 566.158,622.072 563.658,617.072 "/>
    <polygon style="fill: none; fill-opacity:0; stroke-width: 2; stroke: #000000" points="573.658,622.072 563.658,627.072 566.158,622.072 563.658,617.072 "/>
    <text font-size="9.6" style="fill: #000000;text-anchor:start;font-family:monospace;font-style:normal;font-weight:normal" x="476.572" y="577.22">1</text>
    <text font-size="9.6" style="fill: #000000;text-anchor:end;font-family:monospace;font-style:normal;font-weight:normal" x="571.894" y="618.072">n</text>
  </g>
  <g>
    <rect style="fill: #ffffff" x="88.2976" y="175.687" width="110.7" height="18"/>
    <rect style="fill: none; fill-opacity:0; stroke-width: 2; stroke: #000000" x="88.2976" y="175.687" width="110.7" height="18"/>
    <text font-size="11.2" style="fill: #000000;text-anchor:middle;font-family:sans-serif;font-style:normal;font-weight:700" x="143.648" y="189.687">account</text>
    <rect style="fill: #ffffff" x="88.2976" y="193.687" width="110.7" height="52"/>
    <rect style="fill: none; fill-opacity:0; stroke-width: 2; stroke: #000000" x="88.2976" y="193.687" width="110.7" height="52"/>
    <polygon style="fill: #000000" points="91.2976,203.687 93.2976,206.687 95.2976,203.687 93.2976,200.687 "/>
    <text font-size="12.8" style="fill: #000000;text-anchor:start;font-family:monospace;font-style:normal;font-weight:normal" x="97.2976" y="209.687">iban</text>
    <text font-size="12.8" style="fill: #000000;text-anchor:start;font-family:monospace;font-style:normal;font-weight:normal" x="138.098" y="209.687">varchar</text>
    <line style="fill: none; fill-opacity:0; stroke-width: 1; stroke: #000000" x1="97.2976" y1="211.287" x2="191.998" y2="211.287"/>
    <ellipse style="fill: none; fill-opacity:0; stroke-width: 0.2; stroke: #000000" cx="93.2976" cy="219.687" rx="2" ry="2"/>
    <text font-size="12.8" style="fill: #000000;text-anchor:start;font-family:monospace;font-style:normal;font-weight:normal" x="97.2976" y="225.687">bic</text>
    <text font-size="12.8" style="fill: #000000;text-anchor:start;font-family:monospace;font-style:normal;font-weight:normal" x="138.098" y="225.687">varchar</text>
    <ellipse style="fill: #000000" cx="93.2976" cy="235.687" rx="2" ry="2"/>
    <text font-size="12.8" style="fill: #000000;text-anchor:start;font-family:monospace;font-style:normal;font-weight:normal" x="97.2976" y="241.687">user</text>
    <text font-size="12.8" style="fill: #000000;text-anchor:start;font-family:monospace;font-style:normal;font-weight:normal" x="138.098" y="241.687">User</text>
  </g>
  <g>
    <rect style="fill: #ffffff" x="-148.21" y="176.154" width="110.7" height="18"/>
    <rect style="fill: none; fill-opacity:0; stroke-width: 2; stroke: #000000" x="-148.21" y="176.154" width="110.7" height="18"/>
    <text font-size="11.2" style="fill: #000000;text-anchor:middle;font-family:sans-serif;font-style:normal;font-weight:700" x="-92.86" y="190.154"> bic</text>
    <rect style="fill: #ffffff" x="-148.21" y="194.154" width="110.7" height="36"/>
    <rect style="fill: none; fill-opacity:0; stroke-width: 2; stroke: #000000" x="-148.21" y="194.154" width="110.7" height="36"/>
    <polygon style="fill: #000000" points="-145.21,204.154 -143.21,207.154 -141.21,204.154 -143.21,201.154 "/>
    <text font-size="12.8" style="fill: #000000;text-anchor:start;font-family:monospace;font-style:normal;font-weight:normal" x="-139.21" y="210.154">bic</text>
    <text font-size="12.8" style="fill: #000000;text-anchor:start;font-family:monospace;font-style:normal;font-weight:normal" x="-98.41" y="210.154">varchar</text>
    <line style="fill: none; fill-opacity:0; stroke-width: 1; stroke: #000000" x1="-139.21" y1="211.754" x2="-44.51" y2="211.754"/>
    <ellipse style="fill: #000000" cx="-143.21" cy="220.154" rx="2" ry="2"/>
    <text font-size="12.8" style="fill: #000000;text-anchor:start;font-family:monospace;font-style:normal;font-weight:normal" x="-139.21" y="226.154">bank</text>
    <text font-size="12.8" style="fill: #000000;text-anchor:start;font-family:monospace;font-style:normal;font-weight:normal" x="-98.41" y="226.154">varchar</text>
  </g>
  <g>
    <polyline style="fill: none; fill-opacity:0; stroke-width: 2; stroke: #000000" points="319.88,219.213 259.439,219.213 259.439,219.687 208.734,219.687 "/>
    <polygon style="fill: #000000" points="201.234,219.687 211.234,214.687 208.734,219.687 211.234,224.687 "/>
    <polygon style="fill: none; fill-opacity:0; stroke-width: 2; stroke: #000000" points="201.234,219.687 211.234,214.687 208.734,219.687 211.234,224.687 "/>
    <text font-size="9.6" style="fill: #000000;text-anchor:end;font-family:monospace;font-style:normal;font-weight:normal" x="315.88" y="215.213">1</text>
    <text font-size="9.6" style="fill: #000000;text-anchor:start;font-family:monospace;font-style:normal;font-weight:normal" x="202.998" y="215.687">n</text>
  </g>
  <g>
    <polyline style="fill: none; fill-opacity:0; stroke-width: 2; stroke: #000000" points="-37.51,204.154 25.3938,204.154 25.3938,203.687 78.5615,203.687 "/>
    <polygon style="fill: #000000" points="86.0615,203.687 76.0615,208.687 78.5615,203.687 76.0615,198.687 "/>
    <polygon style="fill: none; fill-opacity:0; stroke-width: 2; stroke: #000000" points="86.0615,203.687 76.0615,208.687 78.5615,203.687 76.0615,198.687 "/>
    <text font-size="9.6" style="fill: #000000;text-anchor:start;font-family:monospace;font-style:normal;font-weight:normal" x="-33.51" y="200.154">1</text>
    <text font-size="9.6" style="fill: #000000;text-anchor:end;font-family:monospace;font-style:normal;font-weight:normal" x="84.2976" y="199.687">n</text>
  </g>
  <g>
    <rect style="fill: #ffffff" x="326.79" y="1" width="110.7" height="18"/>
    <rect style="fill: none; fill-opacity:0; stroke-width: 2; stroke: #000000" x="326.79" y="1" width="110.7" height="18"/>
    <text font-size="11.2" style="fill: #000000;text-anchor:middle;font-family:sans-serif;font-style:normal;font-weight:700" x="382.14" y="15">city</text>
    <rect style="fill: #ffffff" x="326.79" y="19" width="110.7" height="36"/>
    <rect style="fill: none; fill-opacity:0; stroke-width: 2; stroke: #000000" x="326.79" y="19" width="110.7" height="36"/>
    <polygon style="fill: #000000" points="329.79,29 331.79,32 333.79,29 331.79,26 "/>
    <text font-size="12.8" style="fill: #000000;text-anchor:start;font-family:monospace;font-style:normal;font-weight:normal" x="335.79" y="35">zip</text>
    <text font-size="12.8" style="fill: #000000;text-anchor:start;font-family:monospace;font-style:normal;font-weight:normal" x="376.59" y="35">varchar</text>
    <line style="fill: none; fill-opacity:0; stroke-width: 1; stroke: #000000" x1="335.79" y1="36.6" x2="430.49" y2="36.6"/>
    <ellipse style="fill: #000000" cx="331.79" cy="45" rx="2" ry="2"/>
    <text font-size="12.8" style="fill: #000000;text-anchor:start;font-family:monospace;font-style:normal;font-weight:normal" x="335.79" y="51">city</text>
    <text font-size="12.8" style="fill: #000000;text-anchor:start;font-family:monospace;font-style:normal;font-weight:normal" x="376.59" y="51">varchar</text>
  </g>
  <g>
    <polyline style="fill: none; fill-opacity:0; stroke-width: 2; stroke: #000000" points="370.655,159.213 370.655,107.106 382.14,107.106 382.14,64.7361 "/>
    <polygon style="fill: #000000" points="382.14,57.2361 387.14,67.2361 382.14,64.7361 377.14,67.2361 "/>
    <polygon style="fill: none; fill-opacity:0; stroke-width: 2; stroke: #000000" points="382.14,57.2361 387.14,67.2361 382.14,64.7361 377.14,67.2361 "/>
    <text font-size="9.6" style="fill: #000000;text-anchor:start;font-family:monospace;font-style:normal;font-weight:normal" x="374.655" y="155.213">1</text>
    <text font-size="9.6" style="fill: #000000;text-anchor:start;font-family:monospace;font-style:normal;font-weight:normal" x="386.14" y="67">n</text>
  </g>
  <g>
    <polyline style="fill: none; fill-opacity:0; stroke-width: 2; stroke: #000000" points="472.572,533.22 826.696,533.22 826.696,343 881.264,343 "/>
    <polygon style="fill: #000000" points="888.764,343 878.764,348 881.264,343 878.764,338 "/>
    <polygon style="fill: none; fill-opacity:0; stroke-width: 2; stroke: #000000" points="888.764,343 878.764,348 881.264,343 878.764,338 "/>
    <text font-size="9.6" style="fill: #000000;text-anchor:start;font-family:monospace;font-style:normal;font-weight:normal" x="476.572" y="529.22">c</text>
    <text font-size="9.6" style="fill: #000000;text-anchor:end;font-family:monospace;font-style:normal;font-weight:normal" x="887" y="339">1</text>
  </g>
  <g>
    <polyline style="fill: none; fill-opacity:0; stroke-width: 2; stroke: #000000" points="421.43,357.213 421.43,417.716 433.347,417.716 433.347,495.484 "/>
    <polygon style="fill: #000000" points="433.347,502.984 428.347,492.984 433.347,495.484 438.347,492.984 "/>
    <polygon style="fill: none; fill-opacity:0; stroke-width: 2; stroke: #000000" points="433.347,502.984 428.347,492.984 433.347,495.484 438.347,492.984 "/>
    <text font-size="9.6" style="fill: #000000;text-anchor:start;font-family:monospace;font-style:normal;font-weight:normal" x="425.43" y="369.213">1</text>
    <text font-size="9.6" style="fill: #000000;text-anchor:start;font-family:monospace;font-style:normal;font-weight:normal" x="437.347" y="501.22">c/n</text>
  </g>
  <g>
    <polyline style="fill: none; fill-opacity:0; stroke-width: 2; stroke: #000000" points="472.205,357.213 472.205,431.216 472.572,431.216 472.572,495.484 "/>
    <polygon style="fill: #000000" points="472.572,502.984 467.572,492.984 472.572,495.484 477.572,492.984 "/>
    <polygon style="fill: none; fill-opacity:0; stroke-width: 2; stroke: #000000" points="472.572,502.984 467.572,492.984 472.572,495.484 477.572,492.984 "/>
    <text font-size="9.6" style="fill: #000000;text-anchor:start;font-family:monospace;font-style:normal;font-weight:normal" x="476.205" y="369.213">1</text>
    <text font-size="9.6" style="fill: #000000;text-anchor:start;font-family:monospace;font-style:normal;font-weight:normal" x="476.572" y="501.22">c/n</text>
  </g>
  <g>
    <rect style="fill: #ffffff" x="914.696" y="10" width="141.5" height="18"/>
    <rect style="fill: none; fill-opacity:0; stroke-width: 2; stroke: #000000" x="914.696" y="10" width="141.5" height="18"/>
    <text font-size="11.2" style="fill: #000000;text-anchor:middle;font-family:sans-serif;font-style:normal;font-weight:700" x="985.446" y="24">postsimg</text>
    <rect style="fill: #ffffff" x="914.696" y="28" width="141.5" height="36"/>
    <rect style="fill: none; fill-opacity:0; stroke-width: 2; stroke: #000000" x="914.696" y="28" width="141.5" height="36"/>
    <polygon style="fill: #000000" points="917.696,38 919.696,41 921.696,38 919.696,35 "/>
    <text font-size="12.8" style="fill: #000000;text-anchor:start;font-family:monospace;font-style:normal;font-weight:normal" x="923.696" y="44">postId</text>
    <text font-size="12.8" style="fill: #000000;text-anchor:start;font-family:monospace;font-style:normal;font-weight:normal" x="995.296" y="44">Post</text>
    <line style="fill: none; fill-opacity:0; stroke-width: 1; stroke: #000000" x1="923.696" y1="45.6" x2="1026.1" y2="45.6"/>
    <polygon style="fill: #000000" points="917.696,54 919.696,57 921.696,54 919.696,51 "/>
    <text font-size="12.8" style="fill: #000000;text-anchor:start;font-family:monospace;font-style:normal;font-weight:normal" x="923.696" y="60">filename</text>
    <text font-size="12.8" style="fill: #000000;text-anchor:start;font-family:monospace;font-style:normal;font-weight:normal" x="995.296" y="60">varchar</text>
    <line style="fill: none; fill-opacity:0; stroke-width: 1; stroke: #000000" x1="923.696" y1="61.6" x2="1049.2" y2="61.6"/>
  </g>
  <g>
    <polyline style="fill: none; fill-opacity:0; stroke-width: 2; stroke: #000000" points="1014.45,251 1014.45,157.5 1020.82,157.5 1020.82,73.7361 "/>
    <polygon style="fill: #000000" points="1020.82,66.2361 1025.82,76.2361 1020.82,73.7361 1015.82,76.2361 "/>
    <polygon style="fill: none; fill-opacity:0; stroke-width: 2; stroke: #000000" points="1020.82,66.2361 1025.82,76.2361 1020.82,73.7361 1015.82,76.2361 "/>
    <text font-size="9.59863" style="fill: #000000;text-anchor:start;font-family:monospace;font-style:normal;font-weight:normal" x="1018.45" y="247">1</text>
    <text font-size="9.59863" style="fill: #000000;text-anchor:start;font-family:monospace;font-style:normal;font-weight:normal" x="1024.82" y="76">n</text>
  </g>
  <g>
    <rect style="fill: #ffffff" x="616.696" y="246" width="133.8" height="18"/>
    <rect style="fill: none; fill-opacity:0; stroke-width: 2; stroke: #000000" x="616.696" y="246" width="133.8" height="18"/>
    <text font-size="11.2" style="fill: #000000;text-anchor:middle;font-family:sans-serif;font-style:normal;font-weight:700" x="683.596" y="260">Kommentar</text>
    <rect style="fill: #ffffff" x="616.696" y="264" width="133.8" height="68"/>
    <rect style="fill: none; fill-opacity:0; stroke-width: 2; stroke: #000000" x="616.696" y="264" width="133.8" height="68"/>
    <polygon style="fill: #000000" points="619.696,274 621.696,277 623.696,274 621.696,271 "/>
    <text font-size="12.8" style="fill: #000000;text-anchor:start;font-family:monospace;font-style:normal;font-weight:normal" x="625.696" y="280">id</text>
    <text font-size="12.8" style="fill: #000000;text-anchor:start;font-family:monospace;font-style:normal;font-weight:normal" x="689.596" y="280">int</text>
    <line style="fill: none; fill-opacity:0; stroke-width: 1; stroke: #000000" x1="625.696" y1="281.6" x2="712.696" y2="281.6"/>
    <ellipse style="fill: #000000" cx="621.696" cy="290" rx="2" ry="2"/>
    <text font-size="12.8" style="fill: #000000;text-anchor:start;font-family:monospace;font-style:normal;font-weight:normal" x="625.696" y="296">userId</text>
    <text font-size="12.8" style="fill: #000000;text-anchor:start;font-family:monospace;font-style:normal;font-weight:normal" x="689.596" y="296">User</text>
    <ellipse style="fill: #000000" cx="621.696" cy="306" rx="2" ry="2"/>
    <text font-size="12.8" style="fill: #000000;text-anchor:start;font-family:monospace;font-style:normal;font-weight:normal" x="625.696" y="312">postId</text>
    <text font-size="12.8" style="fill: #000000;text-anchor:start;font-family:monospace;font-style:normal;font-weight:normal" x="689.596" y="312">Post</text>
    <ellipse style="fill: #000000" cx="621.696" cy="322" rx="2" ry="2"/>
    <text font-size="12.8" style="fill: #000000;text-anchor:start;font-family:monospace;font-style:normal;font-weight:normal" x="625.696" y="328">comment</text>
    <text font-size="12.8" style="fill: #000000;text-anchor:start;font-family:monospace;font-style:normal;font-weight:normal" x="689.596" y="328">varchar</text>
  </g>
  <g>
    <polyline style="fill: none; fill-opacity:0; stroke-width: 2; stroke: #000000" points="522.98,283.213 569.838,283.213 569.838,290 606.96,290 "/>
    <polygon style="fill: #000000" points="614.46,290 604.46,295 606.96,290 604.46,285 "/>
    <polygon style="fill: none; fill-opacity:0; stroke-width: 2; stroke: #000000" points="614.46,290 604.46,295 606.96,290 604.46,285 "/>
    <text font-size="9.59863" style="fill: #000000;text-anchor:start;font-family:monospace;font-style:normal;font-weight:normal" x="526.98" y="279.213">1</text>
    <text font-size="9.59863" style="fill: #000000;text-anchor:end;font-family:monospace;font-style:normal;font-weight:normal" x="612.696" y="286">n</text>
  </g>
  <g>
    <polyline style="fill: none; fill-opacity:0; stroke-width: 2; stroke: #000000" points="891,295 820.748,295 820.748,290 760.232,290 "/>
    <polygon style="fill: #000000" points="752.732,290 762.732,285 760.232,290 762.732,295 "/>
    <polygon style="fill: none; fill-opacity:0; stroke-width: 2; stroke: #000000" points="752.732,290 762.732,285 760.232,290 762.732,295 "/>
    <text font-size="9.59863" style="fill: #000000;text-anchor:end;font-family:monospace;font-style:normal;font-weight:normal" x="887" y="291">1</text>
    <text font-size="9.59863" style="fill: #000000;text-anchor:start;font-family:monospace;font-style:normal;font-weight:normal" x="754.496" y="286">n</text>
  </g>
</svg>
