<?xml version="1.0" encoding="UTF-8" standalone="no"?>
<!DOCTYPE svg PUBLIC "-//W3C//DTD SVG 1.0//EN" "http://www.w3.org/TR/2001/PR-SVG-20010719/DTD/svg10.dtd">
<svg width="54cm" height="28cm" viewBox="-149 1 1078 555" xmlns="http://www.w3.org/2000/svg" xmlns:xlink="http://www.w3.org/1999/xlink">
  <g>
    <rect style="fill: #ffffff" x="319.88" y="159.213" width="203.1" height="18"/>
    <rect style="fill: none; fill-opacity:0; stroke-width: 2; stroke: #000000" x="319.88" y="159.213" width="203.1" height="18"/>
    <text font-size="11.2" style="fill: #000000;text-anchor:middle;font-family:sans-serif;font-style:normal;font-weight:700" x="421.43" y="173.213">user</text>
    <rect style="fill: #ffffff" x="319.88" y="177.213" width="203.1" height="180"/>
    <rect style="fill: none; fill-opacity:0; stroke-width: 2; stroke: #000000" x="319.88" y="177.213" width="203.1" height="180"/>
    <polygon style="fill: #000000" points="322.88,187.213 324.88,190.213 326.88,187.213 324.88,184.213 "/>
    <text font-size="12.8" style="fill: #000000;text-anchor:start;font-family:monospace;font-style:normal;font-weight:normal" x="328.88" y="193.213">username</text>
    <text font-size="12.8" style="fill: #000000;text-anchor:start;font-family:monospace;font-style:normal;font-weight:normal" x="423.58" y="193.213">varchar</text>
    <line style="fill: none; fill-opacity:0; stroke-width: 1; stroke: #000000" x1="328.88" y1="194.813" x2="477.48" y2="194.813"/>
    <ellipse style="fill: #000000" cx="324.88" cy="203.213" rx="2" ry="2"/>
    <text font-size="12.8" style="fill: #000000;text-anchor:start;font-family:monospace;font-style:normal;font-weight:normal" x="328.88" y="209.213">password</text>
    <text font-size="12.8" style="fill: #000000;text-anchor:start;font-family:monospace;font-style:normal;font-weight:normal" x="423.58" y="209.213">varchar</text>
    <ellipse style="fill: #000000" cx="324.88" cy="219.213" rx="2" ry="2"/>
    <text font-size="12.8" style="fill: #000000;text-anchor:start;font-family:monospace;font-style:normal;font-weight:normal" x="328.88" y="225.213">firstName</text>
    <text font-size="12.8" style="fill: #000000;text-anchor:start;font-family:monospace;font-style:normal;font-weight:normal" x="423.58" y="225.213">varchar</text>
    <ellipse style="fill: #000000" cx="324.88" cy="235.213" rx="2" ry="2"/>
    <text font-size="12.8" style="fill: #000000;text-anchor:start;font-family:monospace;font-style:normal;font-weight:normal" x="328.88" y="241.213">lastName</text>
    <text font-size="12.8" style="fill: #000000;text-anchor:start;font-family:monospace;font-style:normal;font-weight:normal" x="423.58" y="241.213">varchar</text>
    <ellipse style="fill: none; fill-opacity:0; stroke-width: 0.2; stroke: #000000" cx="324.88" cy="251.213" rx="2" ry="2"/>
    <text font-size="12.8" style="fill: #000000;text-anchor:start;font-family:monospace;font-style:normal;font-weight:normal" x="328.88" y="257.213">feedUrl</text>
    <text font-size="12.8" style="fill: #000000;text-anchor:start;font-family:monospace;font-style:normal;font-weight:normal" x="423.58" y="257.213">varchar</text>
    <ellipse style="fill: #000000" cx="324.88" cy="267.213" rx="2" ry="2"/>
    <text font-size="12.8" style="fill: #000000;text-anchor:start;font-family:monospace;font-style:normal;font-weight:normal" x="328.88" y="273.213">email</text>
    <text font-size="12.8" style="fill: #000000;text-anchor:start;font-family:monospace;font-style:normal;font-weight:normal" x="423.58" y="273.213">varchar</text>
    <ellipse style="fill: none; fill-opacity:0; stroke-width: 0.2; stroke: #000000" cx="324.88" cy="283.213" rx="2" ry="2"/>
    <text font-size="12.8" style="fill: #000000;text-anchor:start;font-family:monospace;font-style:normal;font-weight:normal" x="328.88" y="289.213">picture</text>
    <text font-size="12.8" style="fill: #000000;text-anchor:start;font-family:monospace;font-style:normal;font-weight:normal" x="423.58" y="289.213">link/varchar</text>
    <ellipse style="fill: #000000" cx="324.88" cy="299.213" rx="2" ry="2"/>
    <text font-size="12.8" style="fill: #000000;text-anchor:start;font-family:monospace;font-style:normal;font-weight:normal" x="328.88" y="305.213">birthday</text>
    <text font-size="12.8" style="fill: #000000;text-anchor:start;font-family:monospace;font-style:normal;font-weight:normal" x="423.58" y="305.213">date</text>
    <ellipse style="fill: #000000" cx="324.88" cy="315.213" rx="2" ry="2"/>
    <text font-size="12.8" style="fill: #000000;text-anchor:start;font-family:monospace;font-style:normal;font-weight:normal" x="328.88" y="321.213">street</text>
    <text font-size="12.8" style="fill: #000000;text-anchor:start;font-family:monospace;font-style:normal;font-weight:normal" x="423.58" y="321.213">varchar</text>
    <ellipse style="fill: #000000" cx="324.88" cy="331.213" rx="2" ry="2"/>
    <text font-size="12.8" style="fill: #000000;text-anchor:start;font-family:monospace;font-style:normal;font-weight:normal" x="328.88" y="337.213">housenumber</text>
    <text font-size="12.8" style="fill: #000000;text-anchor:start;font-family:monospace;font-style:normal;font-weight:normal" x="423.58" y="337.213">varchar</text>
    <ellipse style="fill: #000000" cx="324.88" cy="347.213" rx="2" ry="2"/>
    <text font-size="12.8" style="fill: #000000;text-anchor:start;font-family:monospace;font-style:normal;font-weight:normal" x="328.88" y="353.213">city</text>
    <text font-size="12.8" style="fill: #000000;text-anchor:start;font-family:monospace;font-style:normal;font-weight:normal" x="423.58" y="353.213">Ort/plz</text>
  </g>
  <g>
    <rect style="fill: #ffffff" x="741" y="256" width="156.9" height="18"/>
    <rect style="fill: none; fill-opacity:0; stroke-width: 2; stroke: #000000" x="741" y="256" width="156.9" height="18"/>
    <text font-size="11.2" style="fill: #000000;text-anchor:middle;font-family:sans-serif;font-style:normal;font-weight:700" x="819.45" y="270">posts</text>
    <rect style="fill: #ffffff" x="741" y="274" width="156.9" height="68"/>
    <rect style="fill: none; fill-opacity:0; stroke-width: 2; stroke: #000000" x="741" y="274" width="156.9" height="68"/>
    <polygon style="fill: #000000" points="744,284 746,287 748,284 746,281 "/>
    <text font-size="12.8" style="fill: #000000;text-anchor:start;font-family:monospace;font-style:normal;font-weight:normal" x="750" y="290">id</text>
    <text font-size="12.8" style="fill: #000000;text-anchor:start;font-family:monospace;font-style:normal;font-weight:normal" x="837" y="290">int</text>
    <line style="fill: none; fill-opacity:0; stroke-width: 1; stroke: #000000" x1="750" y1="291.6" x2="860.1" y2="291.6"/>
    <ellipse style="fill: #000000" cx="746" cy="300" rx="2" ry="2"/>
    <text font-size="12.8" style="fill: #000000;text-anchor:start;font-family:monospace;font-style:normal;font-weight:normal" x="750" y="306">content</text>
    <text font-size="12.8" style="fill: #000000;text-anchor:start;font-family:monospace;font-style:normal;font-weight:normal" x="837" y="306">varchar</text>
    <ellipse style="fill: #000000" cx="746" cy="316" rx="2" ry="2"/>
    <text font-size="12.8" style="fill: #000000;text-anchor:start;font-family:monospace;font-style:normal;font-weight:normal" x="750" y="322">user</text>
    <text font-size="12.8" style="fill: #000000;text-anchor:start;font-family:monospace;font-style:normal;font-weight:normal" x="837" y="322">User</text>
    <ellipse style="fill: none; fill-opacity:0; stroke-width: 0.2; stroke: #000000" cx="746" cy="332" rx="2" ry="2"/>
    <text font-size="12.8" style="fill: #000000;text-anchor:start;font-family:monospace;font-style:normal;font-weight:normal" x="750" y="338">parentPost</text>
    <text font-size="12.8" style="fill: #000000;text-anchor:start;font-family:monospace;font-style:normal;font-weight:normal" x="837" y="338">Post</text>
  </g>
  <g>
    <polyline style="fill: none; fill-opacity:0; stroke-width: 2; stroke: #000000" points="522.98,168.213 631.99,168.213 631.99,284 731.264,284 "/>
    <polygon style="fill: #000000" points="738.764,284 728.764,289 731.264,284 728.764,279 "/>
    <polygon style="fill: none; fill-opacity:0; stroke-width: 2; stroke: #000000" points="738.764,284 728.764,289 731.264,284 728.764,279 "/>
    <text font-size="9.6" style="fill: #000000;text-anchor:start;font-family:monospace;font-style:normal;font-weight:normal" x="526.98" y="164.213">1</text>
    <text font-size="9.6" style="fill: #000000;text-anchor:end;font-family:monospace;font-style:normal;font-weight:normal" x="737" y="280">n</text>
  </g>
  <g>
    <rect style="fill: #ffffff" x="187.438" y="424.514" width="118.4" height="18"/>
    <rect style="fill: none; fill-opacity:0; stroke-width: 2; stroke: #000000" x="187.438" y="424.514" width="118.4" height="18"/>
    <text font-size="11.2" style="fill: #000000;text-anchor:middle;font-family:sans-serif;font-style:normal;font-weight:700" x="246.638" y="438.514">follower</text>
    <rect style="fill: #ffffff" x="187.438" y="442.514" width="118.4" height="36"/>
    <rect style="fill: none; fill-opacity:0; stroke-width: 2; stroke: #000000" x="187.438" y="442.514" width="118.4" height="36"/>
    <polygon style="fill: #000000" points="190.438,452.514 192.438,455.514 194.438,452.514 192.438,449.514 "/>
    <text font-size="12.8" style="fill: #000000;text-anchor:start;font-family:monospace;font-style:normal;font-weight:normal" x="196.438" y="458.514">followed</text>
    <text font-size="12.8" style="fill: #000000;text-anchor:start;font-family:monospace;font-style:normal;font-weight:normal" x="268.038" y="458.514">user</text>
    <line style="fill: none; fill-opacity:0; stroke-width: 1; stroke: #000000" x1="196.438" y1="460.114" x2="298.838" y2="460.114"/>
    <polygon style="fill: #000000" points="190.438,468.514 192.438,471.514 194.438,468.514 192.438,465.514 "/>
    <text font-size="12.8" style="fill: #000000;text-anchor:start;font-family:monospace;font-style:normal;font-weight:normal" x="196.438" y="474.514">follower</text>
    <text font-size="12.8" style="fill: #000000;text-anchor:start;font-family:monospace;font-style:normal;font-weight:normal" x="268.038" y="474.514">user</text>
    <line style="fill: none; fill-opacity:0; stroke-width: 1; stroke: #000000" x1="196.438" y1="476.114" x2="298.838" y2="476.114"/>
  </g>
  <g>
    <rect style="fill: #ffffff" x="561" y="86" width="118.4" height="18"/>
    <rect style="fill: none; fill-opacity:0; stroke-width: 2; stroke: #000000" x="561" y="86" width="118.4" height="18"/>
    <text font-size="11.2" style="fill: #000000;text-anchor:middle;font-family:sans-serif;font-style:normal;font-weight:700" x="620.2" y="100">votes</text>
    <rect style="fill: #ffffff" x="561" y="104" width="118.4" height="52"/>
    <rect style="fill: none; fill-opacity:0; stroke-width: 2; stroke: #000000" x="561" y="104" width="118.4" height="52"/>
    <polygon style="fill: #000000" points="564,114 566,117 568,114 566,111 "/>
    <text font-size="12.8" style="fill: #000000;text-anchor:start;font-family:monospace;font-style:normal;font-weight:normal" x="570" y="120">voter</text>
    <text font-size="12.8" style="fill: #000000;text-anchor:start;font-family:monospace;font-style:normal;font-weight:normal" x="618.5" y="120">user</text>
    <line style="fill: none; fill-opacity:0; stroke-width: 1; stroke: #000000" x1="570" y1="121.6" x2="649.3" y2="121.6"/>
    <polygon style="fill: #000000" points="564,130 566,133 568,130 566,127 "/>
    <text font-size="12.8" style="fill: #000000;text-anchor:start;font-family:monospace;font-style:normal;font-weight:normal" x="570" y="136">post</text>
    <text font-size="12.8" style="fill: #000000;text-anchor:start;font-family:monospace;font-style:normal;font-weight:normal" x="618.5" y="136">Posts</text>
    <line style="fill: none; fill-opacity:0; stroke-width: 1; stroke: #000000" x1="570" y1="137.6" x2="657" y2="137.6"/>
    <ellipse style="fill: #000000" cx="566" cy="146" rx="2" ry="2"/>
    <text font-size="12.8" style="fill: #000000;text-anchor:start;font-family:monospace;font-style:normal;font-weight:normal" x="570" y="152">vote</text>
    <text font-size="12.8" style="fill: #000000;text-anchor:start;font-family:monospace;font-style:normal;font-weight:normal" x="618.5" y="152">boolean</text>
  </g>
  <g>
    <polyline style="fill: none; fill-opacity:0; stroke-width: 2; stroke: #000000" points="319.88,267.213 246.638,267.213 246.638,414.778 "/>
    <polygon style="fill: #000000" points="246.638,422.278 241.638,412.278 246.638,414.778 251.638,412.278 "/>
    <polygon style="fill: none; fill-opacity:0; stroke-width: 2; stroke: #000000" points="246.638,422.278 241.638,412.278 246.638,414.778 251.638,412.278 "/>
    <text font-size="9.6" style="fill: #000000;text-anchor:end;font-family:monospace;font-style:normal;font-weight:normal" x="315.88" y="263.213">1</text>
    <text font-size="9.6" style="fill: #000000;text-anchor:start;font-family:monospace;font-style:normal;font-weight:normal" x="250.638" y="420.514">c/n</text>
  </g>
  <g>
    <polyline style="fill: none; fill-opacity:0; stroke-width: 2; stroke: #000000" points="472.205,159.213 472.205,95 551.264,95 "/>
    <polygon style="fill: #000000" points="558.764,95 548.764,100 551.264,95 548.764,90 "/>
    <polygon style="fill: none; fill-opacity:0; stroke-width: 2; stroke: #000000" points="558.764,95 548.764,100 551.264,95 548.764,90 "/>
    <text font-size="9.6" style="fill: #000000;text-anchor:start;font-family:monospace;font-style:normal;font-weight:normal" x="476.205" y="155.213">1</text>
    <text font-size="9.6" style="fill: #000000;text-anchor:end;font-family:monospace;font-style:normal;font-weight:normal" x="557" y="91">n</text>
  </g>
  <g>
    <polyline style="fill: none; fill-opacity:0; stroke-width: 2; stroke: #000000" points="819.45,256 819.45,114 689.136,114 "/>
    <polygon style="fill: #000000" points="681.636,114 691.636,109 689.136,114 691.636,119 "/>
    <polygon style="fill: none; fill-opacity:0; stroke-width: 2; stroke: #000000" points="681.636,114 691.636,109 689.136,114 691.636,119 "/>
    <text font-size="9.6" style="fill: #000000;text-anchor:start;font-family:monospace;font-style:normal;font-weight:normal" x="823.45" y="252">1</text>
    <text font-size="9.6" style="fill: #000000;text-anchor:start;font-family:monospace;font-style:normal;font-weight:normal" x="683.4" y="110">n</text>
  </g>
  <g>
    <polyline style="fill: none; fill-opacity:0; stroke-width: 2; stroke: #000000" points="421.43,357.213 421.43,433.514 315.574,433.514 "/>
    <polygon style="fill: #000000" points="308.074,433.514 318.074,428.514 315.574,433.514 318.074,438.514 "/>
    <polygon style="fill: none; fill-opacity:0; stroke-width: 2; stroke: #000000" points="308.074,433.514 318.074,428.514 315.574,433.514 318.074,438.514 "/>
    <text font-size="9.6" style="fill: #000000;text-anchor:start;font-family:monospace;font-style:normal;font-weight:normal" x="425.43" y="369.213">1</text>
    <text font-size="9.6" style="fill: #000000;text-anchor:start;font-family:monospace;font-style:normal;font-weight:normal" x="309.838" y="429.514">c/n</text>
  </g>
  <g>
    <polygon style="fill: #ffffff" points="592.686,219.736 635.786,193.876 678.886,219.736 635.786,245.596 "/>
    <polygon style="fill: none; fill-opacity:0; stroke-width: 2; stroke: #000000" points="592.686,219.736 635.786,193.876 678.886,219.736 635.786,245.596 "/>
    <text font-size="12.8" style="fill: #000000;text-anchor:end;font-family:monospace;font-style:normal;font-weight:normal" x="586.686" y="213.736"/>
    <text font-size="12.8" style="fill: #000000;text-anchor:start;font-family:monospace;font-style:normal;font-weight:normal" x="684.886" y="213.736"/>
    <text font-size="12.8" style="fill: #000000;text-anchor:middle;font-family:monospace;font-style:normal;font-weight:normal" x="635.786" y="223.736">posted</text>
  </g>
  <g>
    <rect style="fill: #ffffff" x="414.672" y="453.22" width="156.9" height="18"/>
    <rect style="fill: none; fill-opacity:0; stroke-width: 2; stroke: #000000" x="414.672" y="453.22" width="156.9" height="18"/>
    <text font-size="11.2" style="fill: #000000;text-anchor:middle;font-family:sans-serif;font-style:normal;font-weight:700" x="493.122" y="467.22">duell</text>
    <rect style="fill: #ffffff" x="414.672" y="471.22" width="156.9" height="84"/>
    <rect style="fill: none; fill-opacity:0; stroke-width: 2; stroke: #000000" x="414.672" y="471.22" width="156.9" height="84"/>
    <polygon style="fill: #000000" points="417.672,481.22 419.672,484.22 421.672,481.22 419.672,478.22 "/>
    <text font-size="12.8" style="fill: #000000;text-anchor:start;font-family:monospace;font-style:normal;font-weight:normal" x="423.672" y="487.22">id</text>
    <text font-size="12.8" style="fill: #000000;text-anchor:start;font-family:monospace;font-style:normal;font-weight:normal" x="533.772" y="487.22">int</text>
    <line style="fill: none; fill-opacity:0; stroke-width: 1; stroke: #000000" x1="423.672" y1="488.82" x2="556.872" y2="488.82"/>
    <ellipse style="fill: #000000" cx="419.672" cy="497.22" rx="2" ry="2"/>
    <text font-size="12.8" style="fill: #000000;text-anchor:start;font-family:monospace;font-style:normal;font-weight:normal" x="423.672" y="503.22">fighterPost</text>
    <text font-size="12.8" style="fill: #000000;text-anchor:start;font-family:monospace;font-style:normal;font-weight:normal" x="533.772" y="503.22">User</text>
    <ellipse style="fill: #000000" cx="419.672" cy="513.22" rx="2" ry="2"/>
    <text font-size="12.8" style="fill: #000000;text-anchor:start;font-family:monospace;font-style:normal;font-weight:normal" x="423.672" y="519.22">fighterRepost</text>
    <text font-size="12.8" style="fill: #000000;text-anchor:start;font-family:monospace;font-style:normal;font-weight:normal" x="533.772" y="519.22">User</text>
    <ellipse style="fill: #000000" cx="419.672" cy="529.22" rx="2" ry="2"/>
    <text font-size="12.8" style="fill: #000000;text-anchor:start;font-family:monospace;font-style:normal;font-weight:normal" x="423.672" y="535.22">post</text>
    <text font-size="12.8" style="fill: #000000;text-anchor:start;font-family:monospace;font-style:normal;font-weight:normal" x="533.772" y="535.22">Post</text>
    <ellipse style="fill: none; fill-opacity:0; stroke-width: 0.2; stroke: #000000" cx="419.672" cy="545.22" rx="2" ry="2"/>
    <text font-size="12.8" style="fill: #000000;text-anchor:start;font-family:monospace;font-style:normal;font-weight:normal" x="423.672" y="551.22">winner</text>
    <text font-size="12.8" style="fill: #000000;text-anchor:start;font-family:monospace;font-style:normal;font-weight:normal" x="533.772" y="551.22">User</text>
  </g>
  <g>
    <polyline style="fill: none; fill-opacity:0; stroke-width: 2; stroke: #000000" points="472.205,357.213 472.205,405.216 453.897,405.216 453.897,443.484 "/>
    <polygon style="fill: #000000" points="453.897,450.984 448.897,440.984 453.897,443.484 458.897,440.984 "/>
    <polygon style="fill: none; fill-opacity:0; stroke-width: 2; stroke: #000000" points="453.897,450.984 448.897,440.984 453.897,443.484 458.897,440.984 "/>
    <text font-size="9.6" style="fill: #000000;text-anchor:start;font-family:monospace;font-style:normal;font-weight:normal" x="476.205" y="369.213">1</text>
    <text font-size="9.6" style="fill: #000000;text-anchor:start;font-family:monospace;font-style:normal;font-weight:normal" x="457.897" y="449.22">c/n</text>
  </g>
  <g>
    <rect style="fill: #ffffff" x="718.894" y="462.072" width="210.8" height="18"/>
    <rect style="fill: none; fill-opacity:0; stroke-width: 2; stroke: #000000" x="718.894" y="462.072" width="210.8" height="18"/>
    <text font-size="11.2" style="fill: #000000;text-anchor:middle;font-family:sans-serif;font-style:normal;font-weight:700" x="824.294" y="476.072">round</text>
    <rect style="fill: #ffffff" x="718.894" y="480.072" width="210.8" height="68"/>
    <rect style="fill: none; fill-opacity:0; stroke-width: 2; stroke: #000000" x="718.894" y="480.072" width="210.8" height="68"/>
    <polygon style="fill: #000000" points="721.894,490.072 723.894,493.072 725.894,490.072 723.894,487.072 "/>
    <text font-size="12.8" style="fill: #000000;text-anchor:start;font-family:monospace;font-style:normal;font-weight:normal" x="727.894" y="496.072">duell</text>
    <text font-size="12.8" style="fill: #000000;text-anchor:start;font-family:monospace;font-style:normal;font-weight:normal" x="884.194" y="496.072">Duell</text>
    <line style="fill: none; fill-opacity:0; stroke-width: 1; stroke: #000000" x1="727.894" y1="497.672" x2="922.694" y2="497.672"/>
    <polygon style="fill: #000000" points="721.894,506.072 723.894,509.072 725.894,506.072 723.894,503.072 "/>
    <text font-size="12.8" style="fill: #000000;text-anchor:start;font-family:monospace;font-style:normal;font-weight:normal" x="727.894" y="512.072">round</text>
    <text font-size="12.8" style="fill: #000000;text-anchor:start;font-family:monospace;font-style:normal;font-weight:normal" x="884.194" y="512.072">int</text>
    <line style="fill: none; fill-opacity:0; stroke-width: 1; stroke: #000000" x1="727.894" y1="513.672" x2="907.294" y2="513.672"/>
    <ellipse style="fill: #000000" cx="723.894" cy="522.072" rx="2" ry="2"/>
    <text font-size="12.8" style="fill: #000000;text-anchor:start;font-family:monospace;font-style:normal;font-weight:normal" x="727.894" y="528.072">fighterPostAction</text>
    <text font-size="12.8" style="fill: #000000;text-anchor:start;font-family:monospace;font-style:normal;font-weight:normal" x="884.194" y="528.072">int</text>
    <ellipse style="fill: #000000" cx="723.894" cy="538.072" rx="2" ry="2"/>
    <text font-size="12.8" style="fill: #000000;text-anchor:start;font-family:monospace;font-style:normal;font-weight:normal" x="727.894" y="544.072">fighterRepostAction</text>
    <text font-size="12.8" style="fill: #000000;text-anchor:start;font-family:monospace;font-style:normal;font-weight:normal" x="884.194" y="544.072">int</text>
  </g>
  <g>
    <polyline style="fill: none; fill-opacity:0; stroke-width: 2; stroke: #000000" points="571.572,529.22 645.233,529.22 645.233,506.072 709.158,506.072 "/>
    <polygon style="fill: #000000" points="716.658,506.072 706.658,511.072 709.158,506.072 706.658,501.072 "/>
    <polygon style="fill: none; fill-opacity:0; stroke-width: 2; stroke: #000000" points="716.658,506.072 706.658,511.072 709.158,506.072 706.658,501.072 "/>
    <text font-size="9.6" style="fill: #000000;text-anchor:start;font-family:monospace;font-style:normal;font-weight:normal" x="575.572" y="525.22">1</text>
    <text font-size="9.6" style="fill: #000000;text-anchor:end;font-family:monospace;font-style:normal;font-weight:normal" x="714.894" y="502.072">n</text>
  </g>
  <g>
    <rect style="fill: #ffffff" x="88.2976" y="175.687" width="110.7" height="18"/>
    <rect style="fill: none; fill-opacity:0; stroke-width: 2; stroke: #000000" x="88.2976" y="175.687" width="110.7" height="18"/>
    <text font-size="11.2" style="fill: #000000;text-anchor:middle;font-family:sans-serif;font-style:normal;font-weight:700" x="143.648" y="189.687">account</text>
    <rect style="fill: #ffffff" x="88.2976" y="193.687" width="110.7" height="52"/>
    <rect style="fill: none; fill-opacity:0; stroke-width: 2; stroke: #000000" x="88.2976" y="193.687" width="110.7" height="52"/>
    <polygon style="fill: #000000" points="91.2976,203.687 93.2976,206.687 95.2976,203.687 93.2976,200.687 "/>
    <text font-size="12.8" style="fill: #000000;text-anchor:start;font-family:monospace;font-style:normal;font-weight:normal" x="97.2976" y="209.687">iban</text>
    <text font-size="12.8" style="fill: #000000;text-anchor:start;font-family:monospace;font-style:normal;font-weight:normal" x="138.098" y="209.687">varchar</text>
    <line style="fill: none; fill-opacity:0; stroke-width: 1; stroke: #000000" x1="97.2976" y1="211.287" x2="191.998" y2="211.287"/>
    <ellipse style="fill: none; fill-opacity:0; stroke-width: 0.2; stroke: #000000" cx="93.2976" cy="219.687" rx="2" ry="2"/>
    <text font-size="12.8" style="fill: #000000;text-anchor:start;font-family:monospace;font-style:normal;font-weight:normal" x="97.2976" y="225.687">bic</text>
    <text font-size="12.8" style="fill: #000000;text-anchor:start;font-family:monospace;font-style:normal;font-weight:normal" x="138.098" y="225.687">varchar</text>
    <ellipse style="fill: #000000" cx="93.2976" cy="235.687" rx="2" ry="2"/>
    <text font-size="12.8" style="fill: #000000;text-anchor:start;font-family:monospace;font-style:normal;font-weight:normal" x="97.2976" y="241.687">user</text>
    <text font-size="12.8" style="fill: #000000;text-anchor:start;font-family:monospace;font-style:normal;font-weight:normal" x="138.098" y="241.687">User</text>
  </g>
  <g>
    <rect style="fill: #ffffff" x="-148.21" y="176.154" width="103" height="18"/>
    <rect style="fill: none; fill-opacity:0; stroke-width: 2; stroke: #000000" x="-148.21" y="176.154" width="103" height="18"/>
    <text font-size="11.2" style="fill: #000000;text-anchor:middle;font-family:sans-serif;font-style:normal;font-weight:700" x="-96.71" y="190.154"> bic</text>
    <rect style="fill: #ffffff" x="-148.21" y="194.154" width="103" height="20"/>
    <rect style="fill: none; fill-opacity:0; stroke-width: 2; stroke: #000000" x="-148.21" y="194.154" width="103" height="20"/>
    <polygon style="fill: #000000" points="-145.21,204.154 -143.21,207.154 -141.21,204.154 -143.21,201.154 "/>
    <text font-size="12.8" style="fill: #000000;text-anchor:start;font-family:monospace;font-style:normal;font-weight:normal" x="-139.21" y="210.154">bic</text>
    <text font-size="12.8" style="fill: #000000;text-anchor:start;font-family:monospace;font-style:normal;font-weight:normal" x="-106.11" y="210.154">varchar</text>
    <line style="fill: none; fill-opacity:0; stroke-width: 1; stroke: #000000" x1="-139.21" y1="211.754" x2="-52.21" y2="211.754"/>
  </g>
  <g>
    <polyline style="fill: none; fill-opacity:0; stroke-width: 2; stroke: #000000" points="319.88,219.213 259.439,219.213 259.439,219.687 208.734,219.687 "/>
    <polygon style="fill: #000000" points="201.234,219.687 211.234,214.687 208.734,219.687 211.234,224.687 "/>
    <polygon style="fill: none; fill-opacity:0; stroke-width: 2; stroke: #000000" points="201.234,219.687 211.234,214.687 208.734,219.687 211.234,224.687 "/>
    <text font-size="9.6" style="fill: #000000;text-anchor:end;font-family:monospace;font-style:normal;font-weight:normal" x="315.88" y="215.213">1</text>
    <text font-size="9.6" style="fill: #000000;text-anchor:start;font-family:monospace;font-style:normal;font-weight:normal" x="202.998" y="215.687">n</text>
  </g>
  <g>
    <polyline style="fill: none; fill-opacity:0; stroke-width: 2; stroke: #000000" points="-45.21,204.154 21.5438,204.154 21.5438,203.687 78.5615,203.687 "/>
    <polygon style="fill: #000000" points="86.0615,203.687 76.0615,208.687 78.5615,203.687 76.0615,198.687 "/>
    <polygon style="fill: none; fill-opacity:0; stroke-width: 2; stroke: #000000" points="86.0615,203.687 76.0615,208.687 78.5615,203.687 76.0615,198.687 "/>
    <text font-size="9.6" style="fill: #000000;text-anchor:start;font-family:monospace;font-style:normal;font-weight:normal" x="-41.21" y="200.154">1</text>
    <text font-size="9.6" style="fill: #000000;text-anchor:end;font-family:monospace;font-style:normal;font-weight:normal" x="84.2976" y="199.687">n</text>
  </g>
  <g>
    <rect style="fill: #ffffff" x="326.79" y="1" width="110.7" height="18"/>
    <rect style="fill: none; fill-opacity:0; stroke-width: 2; stroke: #000000" x="326.79" y="1" width="110.7" height="18"/>
    <text font-size="11.2" style="fill: #000000;text-anchor:middle;font-family:sans-serif;font-style:normal;font-weight:700" x="382.14" y="15">city</text>
    <rect style="fill: #ffffff" x="326.79" y="19" width="110.7" height="36"/>
    <rect style="fill: none; fill-opacity:0; stroke-width: 2; stroke: #000000" x="326.79" y="19" width="110.7" height="36"/>
    <polygon style="fill: #000000" points="329.79,29 331.79,32 333.79,29 331.79,26 "/>
    <text font-size="12.8" style="fill: #000000;text-anchor:start;font-family:monospace;font-style:normal;font-weight:normal" x="335.79" y="35">zip</text>
    <text font-size="12.8" style="fill: #000000;text-anchor:start;font-family:monospace;font-style:normal;font-weight:normal" x="376.59" y="35">varchar</text>
    <line style="fill: none; fill-opacity:0; stroke-width: 1; stroke: #000000" x1="335.79" y1="36.6" x2="430.49" y2="36.6"/>
    <ellipse style="fill: #000000" cx="331.79" cy="45" rx="2" ry="2"/>
    <text font-size="12.8" style="fill: #000000;text-anchor:start;font-family:monospace;font-style:normal;font-weight:normal" x="335.79" y="51">city</text>
    <text font-size="12.8" style="fill: #000000;text-anchor:start;font-family:monospace;font-style:normal;font-weight:normal" x="376.59" y="51">varchar</text>
  </g>
  <g>
    <polyline style="fill: none; fill-opacity:0; stroke-width: 2; stroke: #000000" points="370.655,159.213 370.655,107.106 382.14,107.106 382.14,64.7361 "/>
    <polygon style="fill: #000000" points="382.14,57.2361 387.14,67.2361 382.14,64.7361 377.14,67.2361 "/>
    <polygon style="fill: none; fill-opacity:0; stroke-width: 2; stroke: #000000" points="382.14,57.2361 387.14,67.2361 382.14,64.7361 377.14,67.2361 "/>
    <text font-size="9.6" style="fill: #000000;text-anchor:start;font-family:monospace;font-style:normal;font-weight:normal" x="374.655" y="155.213">1</text>
    <text font-size="9.6" style="fill: #000000;text-anchor:start;font-family:monospace;font-style:normal;font-weight:normal" x="386.14" y="67">n</text>
  </g>
  <g>
    <polyline style="fill: none; fill-opacity:0; stroke-width: 2; stroke: #000000" points="571.572,481.22 656.286,481.22 656.286,316 731.264,316 "/>
    <polygon style="fill: #000000" points="738.764,316 728.764,321 731.264,316 728.764,311 "/>
    <polygon style="fill: none; fill-opacity:0; stroke-width: 2; stroke: #000000" points="738.764,316 728.764,321 731.264,316 728.764,311 "/>
    <text font-size="9.59863" style="fill: #000000;text-anchor:start;font-family:monospace;font-style:normal;font-weight:normal" x="575.572" y="477.22">c</text>
    <text font-size="9.59863" style="fill: #000000;text-anchor:end;font-family:monospace;font-style:normal;font-weight:normal" x="737" y="312">1</text>
  </g>
  <g>
    <polyline style="fill: none; fill-opacity:0; stroke-width: 2; stroke: #000000" points="522.98,357.213 522.98,417.716 532.347,417.716 532.347,443.484 "/>
    <polygon style="fill: #000000" points="532.347,450.984 527.347,440.984 532.347,443.484 537.347,440.984 "/>
    <polygon style="fill: none; fill-opacity:0; stroke-width: 2; stroke: #000000" points="532.347,450.984 527.347,440.984 532.347,443.484 537.347,440.984 "/>
    <text font-size="9.59863" style="fill: #000000;text-anchor:start;font-family:monospace;font-style:normal;font-weight:normal" x="526.98" y="369.213">1</text>
    <text font-size="9.59863" style="fill: #000000;text-anchor:start;font-family:monospace;font-style:normal;font-weight:normal" x="536.347" y="449.22">c/n</text>
  </g>
  <g>
    <polyline style="fill: none; fill-opacity:0; stroke-width: 2; stroke: #000000" points="522.98,347.213 571.572,347.213 571.572,443.484 "/>
    <polygon style="fill: #000000" points="571.572,450.984 566.572,440.984 571.572,443.484 576.572,440.984 "/>
    <polygon style="fill: none; fill-opacity:0; stroke-width: 2; stroke: #000000" points="571.572,450.984 566.572,440.984 571.572,443.484 576.572,440.984 "/>
    <text font-size="9.59863" style="fill: #000000;text-anchor:start;font-family:monospace;font-style:normal;font-weight:normal" x="526.98" y="343.213">1</text>
    <text font-size="9.59863" style="fill: #000000;text-anchor:start;font-family:monospace;font-style:normal;font-weight:normal" x="575.572" y="449.22">c/n</text>
  </g>
</svg>
