<?xml version="1.0" encoding="UTF-8" standalone="no"?>
<!DOCTYPE svg PUBLIC "-//W3C//DTD SVG 1.0//EN" "http://www.w3.org/TR/2001/PR-SVG-20010719/DTD/svg10.dtd">
<svg width="43cm" height="24cm" viewBox="73 1 859 478" xmlns="http://www.w3.org/2000/svg" xmlns:xlink="http://www.w3.org/1999/xlink">
  <g>
    <rect style="fill: #ffffff" x="319.88" y="159.213" width="210.8" height="18"/>
    <rect style="fill: none; fill-opacity:0; stroke-width: 2; stroke: #000000" x="319.88" y="159.213" width="210.8" height="18"/>
    <text font-size="11.2" style="fill: #000000;text-anchor:middle;font-family:sans-serif;font-style:normal;font-weight:700" x="425.28" y="173.213">user</text>
    <rect style="fill: #ffffff" x="319.88" y="177.213" width="210.8" height="196"/>
    <rect style="fill: none; fill-opacity:0; stroke-width: 2; stroke: #000000" x="319.88" y="177.213" width="210.8" height="196"/>
    <polygon style="fill: #000000" points="322.88,187.213 324.88,190.213 326.88,187.213 324.88,184.213 "/>
    <text font-size="12.8" style="fill: #000000;text-anchor:start;font-family:monospace;font-style:normal;font-weight:normal" x="328.88" y="193.213">username</text>
    <text font-size="12.8" style="fill: #000000;text-anchor:start;font-family:monospace;font-style:normal;font-weight:normal" x="431.28" y="193.213">varchar</text>
    <line style="fill: none; fill-opacity:0; stroke-width: 1; stroke: #000000" x1="328.88" y1="194.813" x2="485.18" y2="194.813"/>
    <ellipse style="fill: #000000" cx="324.88" cy="203.213" rx="2" ry="2"/>
    <text font-size="12.8" style="fill: #000000;text-anchor:start;font-family:monospace;font-style:normal;font-weight:normal" x="328.88" y="209.213">password</text>
    <text font-size="12.8" style="fill: #000000;text-anchor:start;font-family:monospace;font-style:normal;font-weight:normal" x="431.28" y="209.213">varchar</text>
    <ellipse style="fill: #000000" cx="324.88" cy="219.213" rx="2" ry="2"/>
    <text font-size="12.8" style="fill: #000000;text-anchor:start;font-family:monospace;font-style:normal;font-weight:normal" x="328.88" y="225.213">firstName</text>
    <text font-size="12.8" style="fill: #000000;text-anchor:start;font-family:monospace;font-style:normal;font-weight:normal" x="431.28" y="225.213">varchar</text>
    <ellipse style="fill: #000000" cx="324.88" cy="235.213" rx="2" ry="2"/>
    <text font-size="12.8" style="fill: #000000;text-anchor:start;font-family:monospace;font-style:normal;font-weight:normal" x="328.88" y="241.213">lastName</text>
    <text font-size="12.8" style="fill: #000000;text-anchor:start;font-family:monospace;font-style:normal;font-weight:normal" x="431.28" y="241.213">varchar</text>
    <ellipse style="fill: none; fill-opacity:0; stroke-width: 0.2; stroke: #000000" cx="324.88" cy="251.213" rx="2" ry="2"/>
    <text font-size="12.8" style="fill: #000000;text-anchor:start;font-family:monospace;font-style:normal;font-weight:normal" x="328.88" y="257.213">feedUrl</text>
    <text font-size="12.8" style="fill: #000000;text-anchor:start;font-family:monospace;font-style:normal;font-weight:normal" x="431.28" y="257.213">varchar</text>
    <ellipse style="fill: #000000" cx="324.88" cy="267.213" rx="2" ry="2"/>
    <text font-size="12.8" style="fill: #000000;text-anchor:start;font-family:monospace;font-style:normal;font-weight:normal" x="328.88" y="273.213">email</text>
    <text font-size="12.8" style="fill: #000000;text-anchor:start;font-family:monospace;font-style:normal;font-weight:normal" x="431.28" y="273.213">varchar</text>
    <ellipse style="fill: none; fill-opacity:0; stroke-width: 0.2; stroke: #000000" cx="324.88" cy="283.213" rx="2" ry="2"/>
    <text font-size="12.8" style="fill: #000000;text-anchor:start;font-family:monospace;font-style:normal;font-weight:normal" x="328.88" y="289.213">picture</text>
    <text font-size="12.8" style="fill: #000000;text-anchor:start;font-family:monospace;font-style:normal;font-weight:normal" x="431.28" y="289.213">link/varchar</text>
    <ellipse style="fill: #000000" cx="324.88" cy="299.213" rx="2" ry="2"/>
    <text font-size="12.8" style="fill: #000000;text-anchor:start;font-family:monospace;font-style:normal;font-weight:normal" x="328.88" y="305.213">birthday</text>
    <text font-size="12.8" style="fill: #000000;text-anchor:start;font-family:monospace;font-style:normal;font-weight:normal" x="431.28" y="305.213">date</text>
    <ellipse style="fill: #000000" cx="324.88" cy="315.213" rx="2" ry="2"/>
    <text font-size="12.8" style="fill: #000000;text-anchor:start;font-family:monospace;font-style:normal;font-weight:normal" x="328.88" y="321.213">street</text>
    <text font-size="12.8" style="fill: #000000;text-anchor:start;font-family:monospace;font-style:normal;font-weight:normal" x="431.28" y="321.213">varchar</text>
    <ellipse style="fill: #000000" cx="324.88" cy="331.213" rx="2" ry="2"/>
    <text font-size="12.8" style="fill: #000000;text-anchor:start;font-family:monospace;font-style:normal;font-weight:normal" x="328.88" y="337.213">housenumber</text>
    <text font-size="12.8" style="fill: #000000;text-anchor:start;font-family:monospace;font-style:normal;font-weight:normal" x="431.28" y="337.213">varchar</text>
    <ellipse style="fill: #000000" cx="324.88" cy="347.213" rx="2" ry="2"/>
    <text font-size="12.8" style="fill: #000000;text-anchor:start;font-family:monospace;font-style:normal;font-weight:normal" x="328.88" y="353.213">zip</text>
    <text font-size="12.8" style="fill: #000000;text-anchor:start;font-family:monospace;font-style:normal;font-weight:normal" x="431.28" y="353.213">Ort/plz</text>
    <ellipse style="fill: none; fill-opacity:0; stroke-width: 0.2; stroke: #000000" cx="324.88" cy="363.213" rx="2" ry="2"/>
    <text font-size="12.8" style="fill: #000000;text-anchor:start;font-family:monospace;font-style:normal;font-weight:normal" x="328.88" y="369.213">feedPassword</text>
    <text font-size="12.8" style="fill: #000000;text-anchor:start;font-family:monospace;font-style:normal;font-weight:normal" x="431.28" y="369.213">varchar</text>
  </g>
  <g>
    <rect style="fill: #ffffff" x="767" y="175" width="164.6" height="18"/>
    <rect style="fill: none; fill-opacity:0; stroke-width: 2; stroke: #000000" x="767" y="175" width="164.6" height="18"/>
    <text font-size="11.2" style="fill: #000000;text-anchor:middle;font-family:sans-serif;font-style:normal;font-weight:700" x="849.3" y="189">posts</text>
    <rect style="fill: #ffffff" x="767" y="193" width="164.6" height="84"/>
    <rect style="fill: none; fill-opacity:0; stroke-width: 2; stroke: #000000" x="767" y="193" width="164.6" height="84"/>
    <polygon style="fill: #000000" points="770,203 772,206 774,203 772,200 "/>
    <text font-size="12.8" style="fill: #000000;text-anchor:start;font-family:monospace;font-style:normal;font-weight:normal" x="776" y="209">id</text>
    <text font-size="12.8" style="fill: #000000;text-anchor:start;font-family:monospace;font-style:normal;font-weight:normal" x="863" y="209">int</text>
    <line style="fill: none; fill-opacity:0; stroke-width: 1; stroke: #000000" x1="776" y1="210.6" x2="886.1" y2="210.6"/>
    <ellipse style="fill: #000000" cx="772" cy="219" rx="2" ry="2"/>
    <text font-size="12.8" style="fill: #000000;text-anchor:start;font-family:monospace;font-style:normal;font-weight:normal" x="776" y="225">content</text>
    <text font-size="12.8" style="fill: #000000;text-anchor:start;font-family:monospace;font-style:normal;font-weight:normal" x="863" y="225">varchar</text>
    <ellipse style="fill: #000000" cx="772" cy="235" rx="2" ry="2"/>
    <text font-size="12.8" style="fill: #000000;text-anchor:start;font-family:monospace;font-style:normal;font-weight:normal" x="776" y="241">user</text>
    <text font-size="12.8" style="fill: #000000;text-anchor:start;font-family:monospace;font-style:normal;font-weight:normal" x="863" y="241">User</text>
    <ellipse style="fill: none; fill-opacity:0; stroke-width: 0.2; stroke: #000000" cx="772" cy="251" rx="2" ry="2"/>
    <text font-size="12.8" style="fill: #000000;text-anchor:start;font-family:monospace;font-style:normal;font-weight:normal" x="776" y="257">parentPost</text>
    <text font-size="12.8" style="fill: #000000;text-anchor:start;font-family:monospace;font-style:normal;font-weight:normal" x="863" y="257">Post</text>
    <ellipse style="fill: none; fill-opacity:0; stroke-width: 0.2; stroke: #000000" cx="772" cy="267" rx="2" ry="2"/>
    <text font-size="12.8" style="fill: #000000;text-anchor:start;font-family:monospace;font-style:normal;font-weight:normal" x="776" y="273">datePosted</text>
    <text font-size="12.8" style="fill: #000000;text-anchor:start;font-family:monospace;font-style:normal;font-weight:normal" x="863" y="273">datetime</text>
  </g>
  <g>
    <polyline style="fill: none; fill-opacity:0; stroke-width: 2; stroke: #000000" points="530.68,168.213 650,168.213 650,184 757.264,184 "/>
    <polygon style="fill: #000000" points="764.764,184 754.764,189 757.264,184 754.764,179 "/>
    <polygon style="fill: none; fill-opacity:0; stroke-width: 2; stroke: #000000" points="764.764,184 754.764,189 757.264,184 754.764,179 "/>
    <text font-size="9.6" style="fill: #000000;text-anchor:start;font-family:monospace;font-style:normal;font-weight:normal" x="534.68" y="164.213">1</text>
    <text font-size="9.6" style="fill: #000000;text-anchor:end;font-family:monospace;font-style:normal;font-weight:normal" x="763" y="180">n</text>
  </g>
  <g>
    <rect style="fill: #ffffff" x="187.438" y="424.514" width="118.4" height="18"/>
    <rect style="fill: none; fill-opacity:0; stroke-width: 2; stroke: #000000" x="187.438" y="424.514" width="118.4" height="18"/>
    <text font-size="11.2" style="fill: #000000;text-anchor:middle;font-family:sans-serif;font-style:normal;font-weight:700" x="246.638" y="438.514">follower</text>
    <rect style="fill: #ffffff" x="187.438" y="442.514" width="118.4" height="36"/>
    <rect style="fill: none; fill-opacity:0; stroke-width: 2; stroke: #000000" x="187.438" y="442.514" width="118.4" height="36"/>
    <polygon style="fill: #000000" points="190.438,452.514 192.438,455.514 194.438,452.514 192.438,449.514 "/>
    <text font-size="12.8" style="fill: #000000;text-anchor:start;font-family:monospace;font-style:normal;font-weight:normal" x="196.438" y="458.514">followed</text>
    <text font-size="12.8" style="fill: #000000;text-anchor:start;font-family:monospace;font-style:normal;font-weight:normal" x="268.038" y="458.514">user</text>
    <line style="fill: none; fill-opacity:0; stroke-width: 1; stroke: #000000" x1="196.438" y1="460.114" x2="298.838" y2="460.114"/>
    <polygon style="fill: #000000" points="190.438,468.514 192.438,471.514 194.438,468.514 192.438,465.514 "/>
    <text font-size="12.8" style="fill: #000000;text-anchor:start;font-family:monospace;font-style:normal;font-weight:normal" x="196.438" y="474.514">follower</text>
    <text font-size="12.8" style="fill: #000000;text-anchor:start;font-family:monospace;font-style:normal;font-weight:normal" x="268.038" y="474.514">user</text>
    <line style="fill: none; fill-opacity:0; stroke-width: 1; stroke: #000000" x1="196.438" y1="476.114" x2="298.838" y2="476.114"/>
  </g>
  <g>
    <rect style="fill: #ffffff" x="547" y="48" width="118.4" height="18"/>
    <rect style="fill: none; fill-opacity:0; stroke-width: 2; stroke: #000000" x="547" y="48" width="118.4" height="18"/>
    <text font-size="11.2" style="fill: #000000;text-anchor:middle;font-family:sans-serif;font-style:normal;font-weight:700" x="606.2" y="62">votes</text>
    <rect style="fill: #ffffff" x="547" y="66" width="118.4" height="52"/>
    <rect style="fill: none; fill-opacity:0; stroke-width: 2; stroke: #000000" x="547" y="66" width="118.4" height="52"/>
    <polygon style="fill: #000000" points="550,76 552,79 554,76 552,73 "/>
    <text font-size="12.8" style="fill: #000000;text-anchor:start;font-family:monospace;font-style:normal;font-weight:normal" x="556" y="82">voter</text>
    <text font-size="12.8" style="fill: #000000;text-anchor:start;font-family:monospace;font-style:normal;font-weight:normal" x="604.5" y="82">user</text>
    <line style="fill: none; fill-opacity:0; stroke-width: 1; stroke: #000000" x1="556" y1="83.6" x2="635.3" y2="83.6"/>
    <polygon style="fill: #000000" points="550,92 552,95 554,92 552,89 "/>
    <text font-size="12.8" style="fill: #000000;text-anchor:start;font-family:monospace;font-style:normal;font-weight:normal" x="556" y="98">post</text>
    <text font-size="12.8" style="fill: #000000;text-anchor:start;font-family:monospace;font-style:normal;font-weight:normal" x="604.5" y="98">Posts</text>
    <line style="fill: none; fill-opacity:0; stroke-width: 1; stroke: #000000" x1="556" y1="99.6" x2="643" y2="99.6"/>
    <ellipse style="fill: #000000" cx="552" cy="108" rx="2" ry="2"/>
    <text font-size="12.8" style="fill: #000000;text-anchor:start;font-family:monospace;font-style:normal;font-weight:normal" x="556" y="114">vote</text>
    <text font-size="12.8" style="fill: #000000;text-anchor:start;font-family:monospace;font-style:normal;font-weight:normal" x="604.5" y="114">tinyint</text>
  </g>
  <g>
    <polyline style="fill: none; fill-opacity:0; stroke-width: 2; stroke: #000000" points="319.88,267.212 319.88,345.863 246.638,345.863 246.638,414.778 "/>
    <polygon style="fill: #000000" points="246.638,422.278 241.638,412.278 246.638,414.778 251.638,412.278 "/>
    <polygon style="fill: none; fill-opacity:0; stroke-width: 2; stroke: #000000" points="246.638,422.278 241.638,412.278 246.638,414.778 251.638,412.278 "/>
    <text font-size="9.6" style="fill: #000000;text-anchor:start;font-family:monospace;font-style:normal;font-weight:normal" x="323.88" y="279.212">1</text>
    <text font-size="9.6" style="fill: #000000;text-anchor:start;font-family:monospace;font-style:normal;font-weight:normal" x="250.638" y="420.514">c/n</text>
  </g>
  <g>
    <polyline style="fill: none; fill-opacity:0; stroke-width: 2; stroke: #000000" points="477.98,159.213 477.98,57 537.264,57 "/>
    <polygon style="fill: #000000" points="544.764,57 534.764,62 537.264,57 534.764,52 "/>
    <polygon style="fill: none; fill-opacity:0; stroke-width: 2; stroke: #000000" points="544.764,57 534.764,62 537.264,57 534.764,52 "/>
    <text font-size="9.6" style="fill: #000000;text-anchor:start;font-family:monospace;font-style:normal;font-weight:normal" x="481.98" y="155.213">1</text>
    <text font-size="9.6" style="fill: #000000;text-anchor:end;font-family:monospace;font-style:normal;font-weight:normal" x="543" y="53">n</text>
  </g>
  <g>
    <polyline style="fill: none; fill-opacity:0; stroke-width: 2; stroke: #000000" points="808.15,175 808.15,76 675.136,76 "/>
    <polygon style="fill: #000000" points="667.636,76 677.636,71 675.136,76 677.636,81 "/>
    <polygon style="fill: none; fill-opacity:0; stroke-width: 2; stroke: #000000" points="667.636,76 677.636,71 675.136,76 677.636,81 "/>
    <text font-size="9.6" style="fill: #000000;text-anchor:start;font-family:monospace;font-style:normal;font-weight:normal" x="812.15" y="171">1</text>
    <text font-size="9.6" style="fill: #000000;text-anchor:start;font-family:monospace;font-style:normal;font-weight:normal" x="669.4" y="72">n</text>
  </g>
  <g>
    <polyline style="fill: none; fill-opacity:0; stroke-width: 2; stroke: #000000" points="319.88,373.213 319.88,393.213 339.88,393.213 339.88,433.514 315.574,433.514 "/>
    <polygon style="fill: #000000" points="308.074,433.514 318.074,428.514 315.574,433.514 318.074,438.514 "/>
    <polygon style="fill: none; fill-opacity:0; stroke-width: 2; stroke: #000000" points="308.074,433.514 318.074,428.514 315.574,433.514 318.074,438.514 "/>
    <text font-size="9.6" style="fill: #000000;text-anchor:start;font-family:monospace;font-style:normal;font-weight:normal" x="323.88" y="385.213">1</text>
    <text font-size="9.6" style="fill: #000000;text-anchor:start;font-family:monospace;font-style:normal;font-weight:normal" x="309.838" y="429.514">c/n</text>
  </g>
  <g>
    <rect style="fill: #ffffff" x="73.2976" y="158.687" width="110.7" height="18"/>
    <rect style="fill: none; fill-opacity:0; stroke-width: 2; stroke: #000000" x="73.2976" y="158.687" width="110.7" height="18"/>
    <text font-size="11.2" style="fill: #000000;text-anchor:middle;font-family:sans-serif;font-style:normal;font-weight:700" x="128.648" y="172.687">account</text>
    <rect style="fill: #ffffff" x="73.2976" y="176.687" width="110.7" height="52"/>
    <rect style="fill: none; fill-opacity:0; stroke-width: 2; stroke: #000000" x="73.2976" y="176.687" width="110.7" height="52"/>
    <polygon style="fill: #000000" points="76.2976,186.687 78.2976,189.687 80.2976,186.687 78.2976,183.687 "/>
    <text font-size="12.8" style="fill: #000000;text-anchor:start;font-family:monospace;font-style:normal;font-weight:normal" x="82.2976" y="192.687">iban</text>
    <text font-size="12.8" style="fill: #000000;text-anchor:start;font-family:monospace;font-style:normal;font-weight:normal" x="123.098" y="192.687">varchar</text>
    <line style="fill: none; fill-opacity:0; stroke-width: 1; stroke: #000000" x1="82.2976" y1="194.287" x2="176.998" y2="194.287"/>
    <polygon style="fill: #000000" points="76.2976,202.687 78.2976,205.687 80.2976,202.687 78.2976,199.687 "/>
    <text font-size="12.8" style="fill: #000000;text-anchor:start;font-family:monospace;font-style:normal;font-weight:normal" x="82.2976" y="208.687">user</text>
    <text font-size="12.8" style="fill: #000000;text-anchor:start;font-family:monospace;font-style:normal;font-weight:normal" x="123.098" y="208.687">User</text>
    <line style="fill: none; fill-opacity:0; stroke-width: 1; stroke: #000000" x1="82.2976" y1="210.287" x2="153.898" y2="210.287"/>
    <ellipse style="fill: none; fill-opacity:0; stroke-width: 0.2; stroke: #000000" cx="78.2976" cy="218.687" rx="2" ry="2"/>
    <text font-size="12.8" style="fill: #000000;text-anchor:start;font-family:monospace;font-style:normal;font-weight:normal" x="82.2976" y="224.687">bic</text>
    <text font-size="12.8" style="fill: #000000;text-anchor:start;font-family:monospace;font-style:normal;font-weight:normal" x="123.098" y="224.687">varchar</text>
  </g>
  <g>
    <rect style="fill: #ffffff" x="73.79" y="333.154" width="110.7" height="18"/>
    <rect style="fill: none; fill-opacity:0; stroke-width: 2; stroke: #000000" x="73.79" y="333.154" width="110.7" height="18"/>
    <text font-size="11.2" style="fill: #000000;text-anchor:middle;font-family:sans-serif;font-style:normal;font-weight:700" x="129.14" y="347.154"> bic</text>
    <rect style="fill: #ffffff" x="73.79" y="351.154" width="110.7" height="36"/>
    <rect style="fill: none; fill-opacity:0; stroke-width: 2; stroke: #000000" x="73.79" y="351.154" width="110.7" height="36"/>
    <polygon style="fill: #000000" points="76.79,361.154 78.79,364.154 80.79,361.154 78.79,358.154 "/>
    <text font-size="12.8" style="fill: #000000;text-anchor:start;font-family:monospace;font-style:normal;font-weight:normal" x="82.79" y="367.154">bic</text>
    <text font-size="12.8" style="fill: #000000;text-anchor:start;font-family:monospace;font-style:normal;font-weight:normal" x="123.59" y="367.154">varchar</text>
    <line style="fill: none; fill-opacity:0; stroke-width: 1; stroke: #000000" x1="82.79" y1="368.754" x2="177.49" y2="368.754"/>
    <ellipse style="fill: #000000" cx="78.79" cy="377.154" rx="2" ry="2"/>
    <text font-size="12.8" style="fill: #000000;text-anchor:start;font-family:monospace;font-style:normal;font-weight:normal" x="82.79" y="383.154">bank</text>
    <text font-size="12.8" style="fill: #000000;text-anchor:start;font-family:monospace;font-style:normal;font-weight:normal" x="123.59" y="383.154">varchar</text>
  </g>
  <g>
    <polyline style="fill: none; fill-opacity:0; stroke-width: 2; stroke: #000000" points="319.88,219.213 251.939,219.213 251.939,218.687 193.734,218.687 "/>
    <polygon style="fill: #000000" points="186.234,218.687 196.234,213.687 193.734,218.687 196.234,223.687 "/>
    <polygon style="fill: none; fill-opacity:0; stroke-width: 2; stroke: #000000" points="186.234,218.687 196.234,213.687 193.734,218.687 196.234,223.687 "/>
    <text font-size="9.6" style="fill: #000000;text-anchor:end;font-family:monospace;font-style:normal;font-weight:normal" x="315.88" y="215.213">1</text>
    <text font-size="9.6" style="fill: #000000;text-anchor:start;font-family:monospace;font-style:normal;font-weight:normal" x="187.998" y="214.687">n</text>
  </g>
  <g>
    <rect style="fill: #ffffff" x="326.79" y="1" width="110.7" height="18"/>
    <rect style="fill: none; fill-opacity:0; stroke-width: 2; stroke: #000000" x="326.79" y="1" width="110.7" height="18"/>
    <text font-size="11.2" style="fill: #000000;text-anchor:middle;font-family:sans-serif;font-style:normal;font-weight:700" x="382.14" y="15">city</text>
    <rect style="fill: #ffffff" x="326.79" y="19" width="110.7" height="36"/>
    <rect style="fill: none; fill-opacity:0; stroke-width: 2; stroke: #000000" x="326.79" y="19" width="110.7" height="36"/>
    <polygon style="fill: #000000" points="329.79,29 331.79,32 333.79,29 331.79,26 "/>
    <text font-size="12.8" style="fill: #000000;text-anchor:start;font-family:monospace;font-style:normal;font-weight:normal" x="335.79" y="35">zip</text>
    <text font-size="12.8" style="fill: #000000;text-anchor:start;font-family:monospace;font-style:normal;font-weight:normal" x="376.59" y="35">varchar</text>
    <line style="fill: none; fill-opacity:0; stroke-width: 1; stroke: #000000" x1="335.79" y1="36.6" x2="430.49" y2="36.6"/>
    <ellipse style="fill: #000000" cx="331.79" cy="45" rx="2" ry="2"/>
    <text font-size="12.8" style="fill: #000000;text-anchor:start;font-family:monospace;font-style:normal;font-weight:normal" x="335.79" y="51">city</text>
    <text font-size="12.8" style="fill: #000000;text-anchor:start;font-family:monospace;font-style:normal;font-weight:normal" x="376.59" y="51">varchar</text>
  </g>
  <g>
    <polyline style="fill: none; fill-opacity:0; stroke-width: 2; stroke: #000000" points="372.58,159.213 372.58,107.106 382.14,107.106 382.14,64.7361 "/>
    <polygon style="fill: #000000" points="382.14,57.2361 387.14,67.2361 382.14,64.7361 377.14,67.2361 "/>
    <polygon style="fill: none; fill-opacity:0; stroke-width: 2; stroke: #000000" points="382.14,57.2361 387.14,67.2361 382.14,64.7361 377.14,67.2361 "/>
    <text font-size="9.6" style="fill: #000000;text-anchor:start;font-family:monospace;font-style:normal;font-weight:normal" x="376.58" y="155.213">1</text>
    <text font-size="9.6" style="fill: #000000;text-anchor:start;font-family:monospace;font-style:normal;font-weight:normal" x="386.14" y="67">n</text>
  </g>
  <g>
    <rect style="fill: #ffffff" x="783.696" y="405" width="141.5" height="18"/>
    <rect style="fill: none; fill-opacity:0; stroke-width: 2; stroke: #000000" x="783.696" y="405" width="141.5" height="18"/>
    <text font-size="11.2" style="fill: #000000;text-anchor:middle;font-family:sans-serif;font-style:normal;font-weight:700" x="854.446" y="419">postsimg</text>
    <rect style="fill: #ffffff" x="783.696" y="423" width="141.5" height="36"/>
    <rect style="fill: none; fill-opacity:0; stroke-width: 2; stroke: #000000" x="783.696" y="423" width="141.5" height="36"/>
    <polygon style="fill: #000000" points="786.696,433 788.696,436 790.696,433 788.696,430 "/>
    <text font-size="12.8" style="fill: #000000;text-anchor:start;font-family:monospace;font-style:normal;font-weight:normal" x="792.696" y="439">postId</text>
    <text font-size="12.8" style="fill: #000000;text-anchor:start;font-family:monospace;font-style:normal;font-weight:normal" x="864.296" y="439">Post</text>
    <line style="fill: none; fill-opacity:0; stroke-width: 1; stroke: #000000" x1="792.696" y1="440.6" x2="895.096" y2="440.6"/>
    <polygon style="fill: #000000" points="786.696,449 788.696,452 790.696,449 788.696,446 "/>
    <text font-size="12.8" style="fill: #000000;text-anchor:start;font-family:monospace;font-style:normal;font-weight:normal" x="792.696" y="455">filename</text>
    <text font-size="12.8" style="fill: #000000;text-anchor:start;font-family:monospace;font-style:normal;font-weight:normal" x="864.296" y="455">varchar</text>
    <line style="fill: none; fill-opacity:0; stroke-width: 1; stroke: #000000" x1="792.696" y1="456.6" x2="918.196" y2="456.6"/>
  </g>
  <g>
    <rect style="fill: #ffffff" x="580.696" y="218" width="133.8" height="18"/>
    <rect style="fill: none; fill-opacity:0; stroke-width: 2; stroke: #000000" x="580.696" y="218" width="133.8" height="18"/>
    <text font-size="11.2" style="fill: #000000;text-anchor:middle;font-family:sans-serif;font-style:normal;font-weight:700" x="647.596" y="232">comment</text>
    <rect style="fill: #ffffff" x="580.696" y="236" width="133.8" height="68"/>
    <rect style="fill: none; fill-opacity:0; stroke-width: 2; stroke: #000000" x="580.696" y="236" width="133.8" height="68"/>
    <polygon style="fill: #000000" points="583.696,246 585.696,249 587.696,246 585.696,243 "/>
    <text font-size="12.8" style="fill: #000000;text-anchor:start;font-family:monospace;font-style:normal;font-weight:normal" x="589.696" y="252">id</text>
    <text font-size="12.8" style="fill: #000000;text-anchor:start;font-family:monospace;font-style:normal;font-weight:normal" x="653.596" y="252">int</text>
    <line style="fill: none; fill-opacity:0; stroke-width: 1; stroke: #000000" x1="589.696" y1="253.6" x2="676.696" y2="253.6"/>
    <ellipse style="fill: #000000" cx="585.696" cy="262" rx="2" ry="2"/>
    <text font-size="12.8" style="fill: #000000;text-anchor:start;font-family:monospace;font-style:normal;font-weight:normal" x="589.696" y="268">userId</text>
    <text font-size="12.8" style="fill: #000000;text-anchor:start;font-family:monospace;font-style:normal;font-weight:normal" x="653.596" y="268">User</text>
    <ellipse style="fill: #000000" cx="585.696" cy="278" rx="2" ry="2"/>
    <text font-size="12.8" style="fill: #000000;text-anchor:start;font-family:monospace;font-style:normal;font-weight:normal" x="589.696" y="284">postId</text>
    <text font-size="12.8" style="fill: #000000;text-anchor:start;font-family:monospace;font-style:normal;font-weight:normal" x="653.596" y="284">Post</text>
    <ellipse style="fill: #000000" cx="585.696" cy="294" rx="2" ry="2"/>
    <text font-size="12.8" style="fill: #000000;text-anchor:start;font-family:monospace;font-style:normal;font-weight:normal" x="589.696" y="300">comment</text>
    <text font-size="12.8" style="fill: #000000;text-anchor:start;font-family:monospace;font-style:normal;font-weight:normal" x="653.596" y="300">varchar</text>
  </g>
  <g>
    <polyline style="fill: none; fill-opacity:0; stroke-width: 2; stroke: #000000" points="530.68,347.213 555.688,347.213 555.688,262 570.96,262 "/>
    <polygon style="fill: #000000" points="578.46,262 568.46,267 570.96,262 568.46,257 "/>
    <polygon style="fill: none; fill-opacity:0; stroke-width: 2; stroke: #000000" points="578.46,262 568.46,267 570.96,262 568.46,257 "/>
    <text font-size="9.6" style="fill: #000000;text-anchor:start;font-family:monospace;font-style:normal;font-weight:normal" x="534.68" y="343.213">1</text>
    <text font-size="9.6" style="fill: #000000;text-anchor:end;font-family:monospace;font-style:normal;font-weight:normal" x="576.696" y="258">n</text>
  </g>
  <g>
    <polyline style="fill: none; fill-opacity:0; stroke-width: 2; stroke: #000000" points="767,219 740.748,219 740.748,262 724.232,262 "/>
    <polygon style="fill: #000000" points="716.732,262 726.732,257 724.232,262 726.732,267 "/>
    <polygon style="fill: none; fill-opacity:0; stroke-width: 2; stroke: #000000" points="716.732,262 726.732,257 724.232,262 726.732,267 "/>
    <text font-size="9.6" style="fill: #000000;text-anchor:end;font-family:monospace;font-style:normal;font-weight:normal" x="763" y="215">1</text>
    <text font-size="9.6" style="fill: #000000;text-anchor:start;font-family:monospace;font-style:normal;font-weight:normal" x="718.496" y="258">n</text>
  </g>
  <g>
    <rect style="fill: #ffffff" x="587.79" y="368" width="141.5" height="18"/>
    <rect style="fill: none; fill-opacity:0; stroke-width: 2; stroke: #000000" x="587.79" y="368" width="141.5" height="18"/>
    <text font-size="11.2" style="fill: #000000;text-anchor:middle;font-family:sans-serif;font-style:normal;font-weight:700" x="658.54" y="382">cashtagpost</text>
    <rect style="fill: #ffffff" x="587.79" y="386" width="141.5" height="36"/>
    <rect style="fill: none; fill-opacity:0; stroke-width: 2; stroke: #000000" x="587.79" y="386" width="141.5" height="36"/>
    <polygon style="fill: #000000" points="590.79,396 592.79,399 594.79,396 592.79,393 "/>
    <text font-size="12.8" style="fill: #000000;text-anchor:start;font-family:monospace;font-style:normal;font-weight:normal" x="596.79" y="402">chashtag</text>
    <text font-size="12.8" style="fill: #000000;text-anchor:start;font-family:monospace;font-style:normal;font-weight:normal" x="668.39" y="402">Cashtag</text>
    <line style="fill: none; fill-opacity:0; stroke-width: 1; stroke: #000000" x1="596.79" y1="403.6" x2="722.29" y2="403.6"/>
    <polygon style="fill: #000000" points="590.79,412 592.79,415 594.79,412 592.79,409 "/>
    <text font-size="12.8" style="fill: #000000;text-anchor:start;font-family:monospace;font-style:normal;font-weight:normal" x="596.79" y="418">post</text>
    <text font-size="12.8" style="fill: #000000;text-anchor:start;font-family:monospace;font-style:normal;font-weight:normal" x="668.39" y="418">Post</text>
    <line style="fill: none; fill-opacity:0; stroke-width: 1; stroke: #000000" x1="596.79" y1="419.6" x2="699.19" y2="419.6"/>
  </g>
  <g>
    <rect style="fill: #ffffff" x="413.79" y="422" width="133.8" height="18"/>
    <rect style="fill: none; fill-opacity:0; stroke-width: 2; stroke: #000000" x="413.79" y="422" width="133.8" height="18"/>
    <text font-size="11.2" style="fill: #000000;text-anchor:middle;font-family:sans-serif;font-style:normal;font-weight:700" x="480.69" y="436">cashtag</text>
    <rect style="fill: #ffffff" x="413.79" y="440" width="133.8" height="36"/>
    <rect style="fill: none; fill-opacity:0; stroke-width: 2; stroke: #000000" x="413.79" y="440" width="133.8" height="36"/>
    <polygon style="fill: #000000" points="416.79,450 418.79,453 420.79,450 418.79,447 "/>
    <text font-size="12.8" style="fill: #000000;text-anchor:start;font-family:monospace;font-style:normal;font-weight:normal" x="422.79" y="456">id</text>
    <text font-size="12.8" style="fill: #000000;text-anchor:start;font-family:monospace;font-style:normal;font-weight:normal" x="486.69" y="456">int</text>
    <line style="fill: none; fill-opacity:0; stroke-width: 1; stroke: #000000" x1="422.79" y1="457.6" x2="509.79" y2="457.6"/>
    <ellipse style="fill: #000000" cx="418.79" cy="466" rx="2" ry="2"/>
    <text font-size="12.8" style="fill: #000000;text-anchor:start;font-family:monospace;font-style:normal;font-weight:normal" x="422.79" y="472">cashtag</text>
    <text font-size="12.8" style="fill: #000000;text-anchor:start;font-family:monospace;font-style:normal;font-weight:normal" x="486.69" y="472">varchar</text>
  </g>
  <g>
    <polyline style="fill: none; fill-opacity:0; stroke-width: 2; stroke: #000000" points="129.14,333.154 129.14,280.92 128.648,280.92 128.648,238.423 "/>
    <polygon style="fill: #000000" points="128.648,230.923 133.648,240.923 128.648,238.423 123.648,240.923 "/>
    <polygon style="fill: none; fill-opacity:0; stroke-width: 2; stroke: #000000" points="128.648,230.923 133.648,240.923 128.648,238.423 123.648,240.923 "/>
    <text font-size="9.6" style="fill: #000000;text-anchor:start;font-family:monospace;font-style:normal;font-weight:normal" x="133.14" y="329.154">1</text>
    <text font-size="9.6" style="fill: #000000;text-anchor:start;font-family:monospace;font-style:normal;font-weight:normal" x="132.648" y="240.687">n</text>
  </g>
  <g>
    <polyline style="fill: none; fill-opacity:0; stroke-width: 2; stroke: #000000" points="808.15,277 808.15,322.5 693.915,322.5 693.915,358.264 "/>
    <polygon style="fill: #000000" points="693.915,365.764 688.915,355.764 693.915,358.264 698.915,355.764 "/>
    <polygon style="fill: none; fill-opacity:0; stroke-width: 2; stroke: #000000" points="693.915,365.764 688.915,355.764 693.915,358.264 698.915,355.764 "/>
    <text font-size="9.6" style="fill: #000000;text-anchor:start;font-family:monospace;font-style:normal;font-weight:normal" x="812.15" y="289">1</text>
    <text font-size="9.6" style="fill: #000000;text-anchor:start;font-family:monospace;font-style:normal;font-weight:normal" x="697.915" y="364">n</text>
  </g>
  <g>
    <polyline style="fill: none; fill-opacity:0; stroke-width: 2; stroke: #000000" points="480.69,422 480.69,396 578.054,396 "/>
    <polygon style="fill: #000000" points="585.554,396 575.554,401 578.054,396 575.554,391 "/>
    <polygon style="fill: none; fill-opacity:0; stroke-width: 2; stroke: #000000" points="585.554,396 575.554,401 578.054,396 575.554,391 "/>
    <text font-size="9.6" style="fill: #000000;text-anchor:start;font-family:monospace;font-style:normal;font-weight:normal" x="484.69" y="418">1</text>
    <text font-size="9.6" style="fill: #000000;text-anchor:end;font-family:monospace;font-style:normal;font-weight:normal" x="583.79" y="392">n</text>
  </g>
  <g>
    <polyline style="fill: none; fill-opacity:0; stroke-width: 2; stroke: #000000" points="889.821,405 889.821,341 890.45,341 890.45,286.736 "/>
    <polygon style="fill: #000000" points="890.45,279.236 895.45,289.236 890.45,286.736 885.45,289.236 "/>
    <polygon style="fill: none; fill-opacity:0; stroke-width: 2; stroke: #000000" points="890.45,279.236 895.45,289.236 890.45,286.736 885.45,289.236 "/>
    <text font-size="9.6" style="fill: #000000;text-anchor:start;font-family:monospace;font-style:normal;font-weight:normal" x="893.821" y="401">1</text>
    <text font-size="9.6" style="fill: #000000;text-anchor:start;font-family:monospace;font-style:normal;font-weight:normal" x="894.45" y="289">n</text>
  </g>
</svg>
